<svg xmlns="http://www.w3.org/2000/svg" xmlns:xlink="http://www.w3.org/1999/xlink" fill="none" version="1.1" width="20" height="20" viewBox="0 0 20 20"><defs><clipPath id="master_svg0_64_05039"><rect x="0" y="0" width="20" height="20" rx="0"/></clipPath></defs><g clip-path="url(#master_svg0_64_05039)"><g><path d="M14.851186494140626,15.4163078125Q14.824846494140624,15.4180078125,14.798446494140626,15.4180078125Q14.716206494140625,15.4180078125,14.635546494140625,15.4020078125Q14.554886494140625,15.3859078125,14.478906494140626,15.3544078125Q14.402926494140624,15.3230078125,14.334546494140625,15.2773078125Q14.266166494140625,15.2316078125,14.208016494140624,15.1734078125Q14.149856494140625,15.1153078125,14.104166494140625,15.0469078125Q14.058476494140624,14.9785078125,14.027006494140625,14.9025078125Q13.995536494140625,14.8266078125,13.979486494140625,14.7459078125Q13.963446494140625,14.6652078125,13.963446494140625,14.5830078125Q13.963446494140625,14.5008078125,13.979486494140625,14.4201078125Q13.995536494140625,14.3394078125,14.027006494140625,14.2635078125Q14.058476494140624,14.1875078125,14.104166494140625,14.1191078125Q14.149856494140625,14.0507078125,14.208016494140624,13.9926078125Q14.266166494140625,13.9344078125,14.334546494140625,13.8887078125Q14.402926494140624,13.8430078125,14.478906494140626,13.8116078125Q14.554886494140625,13.7801078125,14.635546494140625,13.7640078125Q14.716206494140625,13.7480078125,14.798446494140626,13.7480078125Q14.824846494140624,13.7480078125,14.851186494140626,13.7497078125L16.744756494140624,13.7497078125Q16.885056494140628,13.7497078125,16.984156494140628,13.6505078125Q17.083356494140624,13.5514078125,17.083356494140624,13.4111078125L17.083356494140624,3.2548878125Q17.083356494140624,3.1146578125,16.984156494140628,3.0154978125Q16.885056494140628,2.9163408125,16.744756494140624,2.9163408125L6.588536494140625,2.9163408125Q6.249989494140625,2.9163408125,6.249989494140625,3.2548878125L6.249989494140625,5.1267778125Q6.251656494140625,5.1531178125,6.251656494140625,5.1795078125Q6.251656494140625,5.2617478124999995,6.235612494140625,5.342407812499999Q6.219567494140625,5.423067812499999,6.188095494140625,5.499047812500001Q6.156623494140625,5.5750278125,6.110933494140625,5.6434078125Q6.065243494140625,5.7117878125,6.007090494140625,5.7699378125Q5.948937494140625,5.828097812499999,5.880557494140625,5.8737878125Q5.8121774941406255,5.9194778125,5.736197494140625,5.9509478125Q5.660216494140625,5.9824178125,5.579556494140625,5.9984678124999995Q5.498896794140625,6.0145078125,5.416656494140625,6.0145078125Q5.334416194140625,6.0145078125,5.253756494140625,5.9984678124999995Q5.173096494140625,5.9824178125,5.097115494140625,5.9509478125Q5.0211354941406245,5.9194778125,4.952755494140625,5.8737878125Q4.884375494140625,5.828097812499999,4.826222494140625,5.7699378125Q4.768069494140625,5.7117878125,4.722379494140625,5.6434078125Q4.676689494140625,5.5750278125,4.645217494140625,5.499047812500001Q4.613745494140625,5.423067812499999,4.597700494140625,5.342407812499999Q4.581656494140625,5.2617478124999995,4.581656494140625,5.1795078125Q4.581656494140625,5.1531178125,4.583323494140625,5.1267778125L4.583323494140625,3.2548878125Q4.583323494140625,2.4242988125,5.170635494140625,1.8369868125Q5.757947494140625,1.2496748125,6.588536494140625,1.2496748125L16.744756494140624,1.2496748125Q17.575356494140625,1.2496748125,18.162656494140627,1.8369868125Q18.749956494140626,2.4242988125,18.749956494140626,3.2548878125L18.749956494140626,13.4111078125Q18.749956494140626,14.2417078125,18.162656494140627,14.8290078125Q17.575356494140625,15.4163078125,16.744756494140624,15.4163078125L14.851186494140626,15.4163078125Z" fill-rule="evenodd" fill="#999999" fill-opacity="1"/></g><g><path d="M15.416643505859374,16.7450921875L15.416643505859374,6.5888721875Q15.416643505859374,5.7582831875,14.829343505859375,5.1709711875Q14.242043505859375,4.5836591875,13.411443505859374,4.5836591875L3.255223505859375,4.5836591875Q2.424634505859375,4.5836591875,1.837322505859375,5.1709711875Q1.250010505859375,5.7582831875,1.250010505859375,6.5888721875L1.250010505859375,16.7450921875Q1.250010505859375,17.5756921875,1.837322505859375,18.162992187500002Q2.424634505859375,18.7502921875,3.255223505859375,18.7502921875L13.411443505859374,18.7502921875Q14.242043505859375,18.7502921875,14.829343505859375,18.162992187500002Q15.416643505859374,17.5756921875,15.416643505859374,16.7450921875ZM13.650843505859376,6.3494821875Q13.750043505859376,6.4486421875,13.750043505859376,6.5888721875L13.750043505859376,16.7450921875Q13.750043505859376,16.885392187500003,13.650843505859376,16.984492187500003Q13.551743505859376,17.0836921875,13.411443505859374,17.0836921875L3.255223505859375,17.0836921875Q2.916676505859375,17.0836921875,2.916676505859375,16.7450921875L2.916676505859375,6.5888721875Q2.916676505859375,6.2503251875,3.255223505859375,6.2503251875L13.411443505859374,6.2503251875Q13.551743505859376,6.2503251875,13.650843505859376,6.3494821875Z" fill-rule="evenodd" fill="#999999" fill-opacity="1"/></g></g></svg>