<svg xmlns="http://www.w3.org/2000/svg" xmlns:xlink="http://www.w3.org/1999/xlink" fill="none" version="1.1" width="30" height="30" viewBox="0 0 30 30"><defs><clipPath id="master_svg0_608_18538"><rect x="0" y="0" width="30" height="30" rx="0"/></clipPath></defs><g clip-path="url(#master_svg0_608_18538)"><g><path d="M7.5,16.25C7.5,16.25,2.5,16.25,2.5,16.25C2.1684799999999997,16.25,1.850538,16.3818,1.6161159999999999,16.6161C1.381696,16.8505,1.2500000000000002,17.1685,1.25,17.5C1.25,17.5,1.25,27.5,1.25,27.5C1.2500000000000002,27.8315,1.381696,28.1495,1.6161159999999999,28.3839C1.850538,28.6182,2.1684799999999997,28.75,2.5,28.75C2.5,28.75,7.5,28.75,7.5,28.75C7.83153,28.75,8.149460000000001,28.6182,8.383890000000001,28.3839C8.6183,28.1495,8.75,27.8315,8.75,27.5C8.75,27.5,8.75,17.5,8.75,17.5C8.75,17.1685,8.6183,16.8505,8.383890000000001,16.6161C8.149460000000001,16.3818,7.83153,16.25,7.5,16.25C7.5,16.25,7.5,16.25,7.5,16.25ZM6.25,26.25C6.25,26.25,3.75,26.25,3.75,26.25C3.75,26.25,3.75,18.75,3.75,18.75C3.75,18.75,6.25,18.75,6.25,18.75C6.25,18.75,6.25,26.25,6.25,26.25C6.25,26.25,6.25,26.25,6.25,26.25ZM27.5,11.25C27.5,11.25,22.5,11.25,22.5,11.25C22.1685,11.25,21.8505,11.3817,21.6161,11.6161C21.3818,11.8505,21.25,12.1685,21.25,12.5C21.25,12.5,21.25,27.5,21.25,27.5C21.25,27.8315,21.3818,28.1495,21.6161,28.3839C21.8505,28.6182,22.1685,28.75,22.5,28.75C22.5,28.75,27.5,28.75,27.5,28.75C27.8315,28.75,28.1495,28.6182,28.3839,28.3839C28.6182,28.1495,28.75,27.8315,28.75,27.5C28.75,27.5,28.75,12.5,28.75,12.5C28.75,12.1685,28.6182,11.8505,28.3839,11.6161C28.1495,11.3817,27.8315,11.25,27.5,11.25C27.5,11.25,27.5,11.25,27.5,11.25ZM26.25,26.25C26.25,26.25,23.75,26.25,23.75,26.25C23.75,26.25,23.75,13.75,23.75,13.75C23.75,13.75,26.25,13.75,26.25,13.75C26.25,13.75,26.25,26.25,26.25,26.25C26.25,26.25,26.25,26.25,26.25,26.25ZM17.5,1.25C17.5,1.25,12.5,1.25,12.5,1.25C12.1685,1.2500000000000002,11.8505,1.381696,11.6161,1.6161159999999999C11.3817,1.850538,11.25,2.1684799999999997,11.25,2.5C11.25,2.5,11.25,27.5,11.25,27.5C11.25,27.8315,11.3817,28.1495,11.6161,28.3839C11.8505,28.6182,12.1685,28.75,12.5,28.75C12.5,28.75,17.5,28.75,17.5,28.75C17.8315,28.75,18.1495,28.6182,18.3839,28.3839C18.6182,28.1495,18.75,27.8315,18.75,27.5C18.75,27.5,18.75,2.5,18.75,2.5C18.75,2.1684799999999997,18.6182,1.850538,18.3839,1.6161159999999999C18.1495,1.381696,17.8315,1.2500000000000002,17.5,1.25C17.5,1.25,17.5,1.25,17.5,1.25ZM16.25,26.25C16.25,26.25,13.75,26.25,13.75,26.25C13.75,26.25,13.75,3.75,13.75,3.75C13.75,3.75,16.25,3.75,16.25,3.75C16.25,3.75,16.25,26.25,16.25,26.25C16.25,26.25,16.25,26.25,16.25,26.25Z" fill="#D56819" fill-opacity="1"/></g></g></svg>