<svg xmlns="http://www.w3.org/2000/svg" xmlns:xlink="http://www.w3.org/1999/xlink" fill="none" version="1.1" width="20" height="20" viewBox="0 0 20 20"><defs><clipPath id="master_svg0_1_06629"><rect x="0" y="0" width="20" height="20" rx="0"/></clipPath></defs><g clip-path="url(#master_svg0_1_06629)"><g><path d="M17.8501728515625,5.994713896484375C17.169672851562503,4.762233896484375,16.1956728515625,3.728253896484375,15.0338728515625,3.004783896484375C14.9154728515625,2.929433896484375,14.8101728515625,2.879253896484375,14.6806728515625,2.879253896484375C14.3533728515625,2.879253896484375,14.0870728515625,3.161123896484375,14.0870728515625,3.507583896484375C14.0870728515625,3.742743896484375,14.2092728515625,3.948083896484375,14.4210728515625,4.070123896484375C16.4691728515625,5.338723896484375,17.7414728515625,7.687193896484375,17.7414728515625,10.198983896484375C17.7414728515625,12.708493896484375,16.4703728515625,15.055893896484376,14.4253728515625,16.324393896484374C14.2561728515625,16.423093896484374,14.0752728515625,16.624993896484376,14.0752728515625,16.896193896484377C14.0752728515625,17.242693896484376,14.3419728515625,17.524493896484376,14.6698728515625,17.524493896484376C14.8080728515625,17.524493896484376,14.9171728515625,17.464893896484377,15.0172728515625,17.403593896484374C16.1841728515625,16.680893896484378,17.162172851562502,15.646193896484375,17.8457728515625,14.411393896484375C18.5499728515625,13.139193896484375,18.9221728515625,11.682593896484375,18.9221728515625,10.198953896484374C18.9221728515625,8.718753896484376,18.5514728515625,7.264913896484375,17.8501728515625,5.994713896484375ZM15.6883728515625,10.199003896484376C15.6883728515625,9.325623896484375,15.4689728515625,8.468103896484376,15.0539728515625,7.719173896484375C14.6511728515625,6.992303896484375,14.0748728515625,6.383453896484375,13.3874728515625,5.958443896484375L13.3853728515625,5.957183896484375C13.3653728515625,5.946153896484375,13.1861728515625,5.849353896484375,13.0530728515625,5.849353896484375C12.7233728515625,5.849353896484375,12.4551728515625,6.132183896484375,12.4551728515625,6.479813896484375C12.4551728515625,6.707653896484375,12.5684728515625,6.918733896484375,12.7511728515625,7.030833896484375C13.8233728515625,7.677053896484375,14.4894728515625,8.890993896484375,14.4894728515625,10.198963896484376C14.4894728515625,11.534193896484375,13.8027728515625,12.761093896484375,12.6973728515625,13.400793896484375L12.6953728515625,13.401993896484376C12.5167728515625,13.516493896484375,12.4101728515625,13.718093896484374,12.4101728515625,13.941093896484375C12.4101728515625,14.289393896484375,12.6779728515625,14.572693896484376,13.0065728515625,14.572693896484376L13.0096728515625,14.572693896484376C13.1483728515625,14.572693896484376,13.3050728515625,14.491193896484376,13.3116728515625,14.487793896484375L13.3138728515625,14.486493896484374C14.7785728515625,13.618993896484374,15.6883728515625,11.976093896484375,15.6883728515625,10.199003896484376ZM10.7493628515625,1.475462696484375C10.6529028515625,1.426096196484375,10.5452128515625,1.399993896484375,10.4380128515625,1.399993896484375C10.2767628515625,1.399993896484375,10.1185028515625,1.458434296484375,9.9925328515625,1.564481896484375L9.9896928515625,1.5668608964843749C9.8868428515625,1.6535418964843749,8.9555128515625,2.436573896484375,7.9413628515625,3.229033896484375C6.1090828515625,4.661903896484375,5.5534628515625,4.917783896484375,5.4442528515625,4.959023896484375L3.1170728515625,4.959023896484375C3.1017828515625,4.959023896484375,3.0880528515625,4.960063896484375,3.0752828515625,4.961183896484375L1.8843098515625,4.961183896484375C1.5564118515625,4.961183896484375,1.2896728515625,5.242803896484375,1.2896728515625,5.588993896484375L1.2896728515625,14.817593896484375C1.2896728515625,15.163393896484376,1.5564318515625,15.444793896484375,1.8843098515625,15.444793896484375L5.8768228515625,15.445993896484374C5.9829128515625,15.490093896484375,6.5059328515625,15.754193896484376,8.1299328515625,17.159893896484377C8.6842428515625,17.639293896484375,9.3247628515625,18.216293896484373,9.9334928515625,18.784393896484374C9.9496428515625,18.799393896484375,9.9601528515625,18.809193896484373,9.9645928515625,18.813293896484375C10.0948428515625,18.936593896484375,10.2628528515625,19.004593896484376,10.4376728515625,19.004593896484376C10.5374028515625,19.004593896484376,10.6388128515625,18.981493896484373,10.7310328515625,18.937593896484376C10.9942728515625,18.811993896484374,11.1711328515625,18.535993896484374,11.1711328515625,18.251093896484374C11.1711928515625,18.220293896484375,11.1768328515625,15.171593896484374,11.1768328515625,15.110793896484376C11.1768328515625,15.048793896484375,11.1514028515625,2.282274896484375,11.1511428515625,2.153422896484375C11.1511228515625,1.862519896484375,10.9971928515625,1.6027558964843749,10.7493628515625,1.475462696484375ZM9.9778428515625,15.009393896484376L9.9687328515625,17.019593896484373C9.6654528515625,16.747593896484375,9.3719928515625,16.489793896484375,9.095162851562499,16.252193896484375C6.8728428515625,14.341593896484374,6.3158028515625,14.181693896484376,5.9357428515625,14.181693896484376C5.9282028515625,14.181693896484376,5.9220128515625,14.182693896484375,5.9174728515625,14.183393896484375C5.9162928515625,14.183493896484375,5.9151128515625,14.183793896484374,5.9147528515625,14.183893896484374C5.9135228515625,14.183793896484374,5.9123428515625,14.183493896484375,5.9111628515625,14.183393896484375C5.9066428515625,14.182693896484375,5.9004428515625,14.181693896484376,5.8929128515625,14.181693896484376L2.8912828515625,14.181693896484376C2.5460228515625003,14.181693896484376,2.4714728515625,14.097993896484375,2.4714728515625,13.710593896484376L2.4714728515625,6.628013896484375C2.4714728515625,6.356113896484375,2.5005328515625003,6.228023896484375,2.7660928515625,6.228023896484375L5.4702428515625,6.228023896484375C5.8401928515625,6.228023896484375,6.4046028515625,6.070003896484375,8.8332228515625,4.181643896484375C9.2038828515625,3.893443896484375,9.5945028515625,3.583213896484375,9.9682928515625,3.280173896484375C9.9692628515625,4.451003896484375,9.9778428515625,14.962893896484376,9.9778428515625,15.009393896484376Z" fill="#161616" fill-opacity="1"/></g></g></svg>