<svg xmlns="http://www.w3.org/2000/svg" xmlns:xlink="http://www.w3.org/1999/xlink" fill="none" version="1.1" width="20" height="20" viewBox="0 0 20 20"><defs><clipPath id="master_svg0_1_06736"><rect x="0" y="0" width="20" height="20" rx="0"/></clipPath></defs><g clip-path="url(#master_svg0_1_06736)"><g><path d="M17.150048046875,14.2826259765625C16.972248046875002,14.5782259765625,16.588548046874998,14.6739259765625,16.292848046875,14.4964259765625C15.997048046875,14.3188259765625,15.900948046875,13.9353259765625,16.078248046875,13.6393259765625C16.738048046875,12.5402259765625,17.085648046875,11.2819359765625,17.083448046875,9.9999559765625C17.083448046875,6.0878759765625,13.912148046875,2.9166259765625,10.000078046875,2.9166259765625C6.087998046875,2.9166259765625,2.916748046875,6.0878759765625,2.916748046875,9.9999559765625C2.916748046875,13.9120259765625,6.087998046875,17.0833259765625,10.000078046875,17.0833259765625C11.281878046875,17.0855259765625,12.540048046875,16.7381259765625,13.639048046875,16.0785259765625C13.935048046875,15.9010259765625,14.318848046875,15.9970259765625,14.496348046875,16.2930259765625C14.673948046875,16.5889259765625,14.578048046875,16.9727259765625,14.282148046875,17.150425976562502C12.988848046875,17.9266259765625,11.508438046875,18.3356259765625,10.000078046875,18.3333259765625C5.397788046875,18.3333259765625,1.666748046875,14.6022259765625,1.666748046875,9.9999559765625C1.666748046875,5.3976659765625,5.397788046875,1.6666259765625,10.000078046875,1.6666259765625C14.602348046875,1.6666259765625,18.333448046875,5.3976659765625,18.333448046875,9.9999559765625C18.333448046875,11.5291259765625,17.920248046875,12.9993259765625,17.150048046875,14.2826259765625ZM12.708448046875,8.5416259765625C12.708448046875,9.8287059765625,11.795948046875,10.9020459765625,10.575708046875,11.1799559765625L10.575708046875,11.8749259765625C10.575708046875,12.2201259765625,10.295888046875,12.4999259765625,9.950708046875,12.4999259765625C9.605528046875001,12.4999259765625,9.325708046875,12.2201259765625,9.325708046875,11.8749259765625L9.325708046875,10.6249559765625C9.325708046875,10.2797859765625,9.605528046875001,9.9999559765625,9.950708046875,9.9999559765625C10.786538046875,9.9999559765625,11.458418046875,9.3437059765625,11.458418046875,8.5416259765625C11.458418046875,7.7395459765625,10.786538046875,7.0832959765625,9.950708046875,7.0832959765625C9.427788046875001,7.0832959765625,8.952998046874999,7.3420459765625,8.677788046875001,7.7595459765625C8.606978046875,7.8668659765625,8.550978046874999,7.9832659765625,8.511328046875,8.1055859765625C8.400768046875001,8.4280759765625,8.052168046875,8.6024759765625,7.727788046875,8.4975759765625C7.403418046875,8.392665976562501,7.222948046875,8.0471659765625,7.322168046875,7.7210059765625C7.396328046875,7.4914159765625,7.501328046875,7.2730859765625,7.634248046875,7.0718359765625C8.139248046875,6.3051659765625,9.005088046874999,5.8332959765625,9.950918046875,5.8332959765625C11.470288046875,5.8332959765625,12.708448046875,7.0424559765625,12.708448046875,8.5416259765625ZM10.000078046875,14.3749259765625C9.654908046875,14.3749259765625,9.375078046875,14.0951259765625,9.375078046875,13.7499259765625C9.375078046875,13.4048259765625,9.654908046875,13.1249259765625,10.000078046875,13.1249259765625C10.345258046875,13.1249259765625,10.625078046875,13.4048259765625,10.625078046875,13.7499259765625C10.625078046875,14.0951259765625,10.345258046875,14.3749259765625,10.000078046875,14.3749259765625Z" fill="#666666" fill-opacity="1"/></g></g></svg>