<svg xmlns="http://www.w3.org/2000/svg" xmlns:xlink="http://www.w3.org/1999/xlink" fill="none" version="1.1" width="8" height="14.99993896484375" viewBox="0 0 8 14.99993896484375"><g transform="matrix(-1,-4.2146844236867764e-8,4.2146844236867764e-8,-1,15.999999367774183,30.001098969987254)"><path d="M15.86661,15.84536031640625C16.04444,16.03847931640625,16.04444,16.35158931640625,15.86661,16.54471931640625L10.3762,22.50722931640625L15.85538,28.45754931640625C16.03321,28.650649316406252,16.03321,28.96374931640625,15.85538,29.15684931640625L15.211400000000001,29.85624931640625C15.033570000000001,30.04934931640625,14.74525,30.04934931640625,14.56742,29.85624931640625L8.14139,22.877669316406248C8.0786079,22.80948931640625,8.0379911,22.72636931640625,8.0195344,22.63885931640625C7.9724552,22.46993931640625,8.0103866,22.27905931640625,8.133367,22.14549931640625L14.57865,15.14600531640625C14.75648,14.95288411640625,15.0448,14.95288551640625,15.222629999999999,15.14600531640625L15.86661,15.84536031640625Z" fill-rule="evenodd" fill="#161616" fill-opacity="1"/></g></svg>