<svg xmlns="http://www.w3.org/2000/svg" xmlns:xlink="http://www.w3.org/1999/xlink" fill="none" version="1.1" width="30" height="30" viewBox="0 0 30 30"><defs><clipPath id="master_svg0_672_05253"><rect x="0" y="0" width="30" height="30" rx="0"/></clipPath></defs><g clip-path="url(#master_svg0_672_05253)"><g><path d="M24.8875,19.3875C24.8875,19.3875,19.225,19.3875,19.225,19.3875C18.8935,19.3875,18.5755,19.5193,18.3411,19.7536C18.1068,19.988,17.975,20.306,17.975,20.6375C17.975,20.969,18.1068,21.287,18.3411,21.5214C18.5755,21.7558,18.8935,21.8875,19.225,21.8875C19.225,21.8875,22.225,21.8875,22.225,21.8875C20.8461,23.3284,19.068,24.3241,17.119,24.7467C15.1699,25.1694,13.139,24.9995,11.28722,24.259C9.43542,23.5186,7.84734,22.2414,6.72699,20.5915C5.6066400000000005,18.9415,5.00522,16.9944,5,15C5,14.6685,4.8683,14.3505,4.63389,14.1161C4.3994599999999995,13.8817,4.08153,13.75,3.75,13.75C3.4184799999999997,13.75,3.1005380000000002,13.8817,2.866116,14.1161C2.631696,14.3505,2.500000000000001,14.6685,2.5,15C2.50660833,17.441000000000003,3.227776,19.8266,4.5745000000000005,21.8625C5.92124,23.8984,7.83459,25.4955,10.078420000000001,26.4565C12.32228,27.4176,14.7984,27.7006,17.2013,27.2708C19.6041,26.8409,21.8285,25.7169,23.6,24.0375C23.6,24.0375,23.6,26.25,23.6,26.25C23.6,26.5815,23.7317,26.8995,23.9661,27.1339C24.2005,27.3682,24.5185,27.5,24.85,27.5C25.1815,27.5,25.4995,27.3682,25.7339,27.1339C25.9682,26.8995,26.1,26.5815,26.1,26.25C26.1,26.25,26.1,20.625,26.1,20.625C26.0969,20.302,25.969,19.9929,25.7429,19.7621C25.5169,19.5314,25.2104,19.3971,24.8875,19.3875C24.8875,19.3875,24.8875,19.3875,24.8875,19.3875ZM15,2.5C11.79549,2.50914024,8.71686,3.74864,6.4,5.9625C6.4,5.9625,6.4,3.75,6.4,3.75C6.4,3.4184799999999997,6.2683,3.1005380000000002,6.0338899999999995,2.866116C5.79946,2.631696,5.48152,2.500000000000001,5.15,2.5C4.81848,2.500000000000001,4.50054,2.631696,4.26611,2.866116C4.0317,3.1005380000000002,3.9,3.4184799999999997,3.9,3.75C3.9,3.75,3.9,9.375,3.9,9.375C3.9,9.70653,4.0317,10.024460000000001,4.26611,10.258890000000001C4.50054,10.4933,4.81848,10.625,5.15,10.625C5.15,10.625,10.775,10.625,10.775,10.625C11.10653,10.625,11.42446,10.4933,11.65889,10.258890000000001C11.8933,10.024460000000001,12.025,9.70653,12.025,9.375C12.025,9.04347,11.8933,8.725539999999999,11.65889,8.491109999999999C11.42446,8.2567,11.10653,8.125,10.775,8.125C10.775,8.125,7.775,8.125,7.775,8.125C9.153089999999999,6.68484,10.93011,5.68938,12.878,5.2663899999999995C14.8259,4.8434,16.855800000000002,5.01219,18.707,5.75108C20.5583,6.48997,22.1465,7.76526,23.2677,9.41325C24.3891,11.06125,24.9922,13.0067,25,15C25,15.3315,25.1318,15.6495,25.3661,15.8839C25.6005,16.1182,25.9185,16.25,26.25,16.25C26.5815,16.25,26.8995,16.1182,27.1339,15.8839C27.3682,15.6495,27.5,15.3315,27.5,15C27.5,13.3585,27.1766,11.73302,26.5485,10.21646C25.9202,8.69989,24.9996,7.3219,23.8389,6.161160000000001C22.6781,5.00044,21.3001,4.07969,19.7835,3.451506C18.267,2.823322,16.6415,2.5000000000000018,15,2.5C15,2.5,15,2.5,15,2.5Z" fill="#D56819" fill-opacity="1"/></g><g><path d="M12,18.64286C12,18.85123,12.07902,19.05111,12.219668,19.198439999999998C12.360322,19.34576,12.551085,19.42857,12.75,19.42857L14.25,19.42857L14.25,20.2143C14.25,20.4227,14.32902,20.622500000000002,14.46967,20.7699C14.61032,20.9172,14.80109,21,15,21C15.1989,21,15.3897,20.9172,15.53033,20.7699C15.67095,20.622500000000002,15.75,20.4227,15.75,20.2143L15.75,19.42857C16.3467,19.42857,16.91902,19.180210000000002,17.34097,18.73816C17.76293,18.296120000000002,18,17.69654,18,17.07143C18,16.44631,17.76293,15.84674,17.34097,15.404679999999999C16.91902,14.96263,16.3467,14.71429,15.75,14.71429L14.25,14.71429C14.05109,14.71429,13.86032,14.631499999999999,13.71967,14.48416C13.57902,14.33681,13.5,14.13696,13.5,13.92857C13.5,13.72018,13.57902,13.520340000000001,13.71967,13.37299C13.86032,13.22564,14.05109,13.14286,14.25,13.14286L17.25,13.14286C17.448900000000002,13.14286,17.6397,13.06007,17.78032,12.91273C17.92095,12.76538,18,12.565529999999999,18,12.35714C18,12.14876,17.92095,11.94891,17.78032,11.80156C17.6397,11.654209999999999,17.448900000000002,11.57143,17.25,11.57143L15.75,11.57143L15.75,10.785714C15.75,10.577327,15.67095,10.377481,15.53033,10.230128C15.3897,10.0827829,15.1989,10,15,10C14.80109,10,14.61032,10.0827829,14.46967,10.230128C14.32902,10.377481,14.25,10.577327,14.25,10.785714L14.25,11.57143C13.65326,11.57143,13.08097,11.81977,12.65901,12.26182C12.237053,12.70387,12,13.30342,12,13.92857C12,14.55372,12.237053,15.15327,12.65901,15.59531C13.08097,16.03735,13.65326,16.28571,14.25,16.28571L15.75,16.28571C15.9489,16.28571,16.1397,16.36853,16.28032,16.51585C16.42095,16.66317,16.5,16.86306,16.5,17.07143C16.5,17.2798,16.42095,17.479689999999998,16.28032,17.62701C16.1397,17.77433,15.9489,17.85714,15.75,17.85714L12.75,17.85714C12.551085,17.85714,12.360322,17.93996,12.219668,18.08728C12.07902,18.2346,12,18.43449,12,18.64286Z" fill="#D56819" fill-opacity="1"/></g></g></svg>