<svg xmlns="http://www.w3.org/2000/svg" xmlns:xlink="http://www.w3.org/1999/xlink" fill="none" version="1.1" width="5.3330078125" height="9.99993896484375" viewBox="0 0 5.3330078125 9.99993896484375"><g transform="matrix(-1,-4.2146844236867764e-8,4.2146844236867764e-8,-1,10.666015203516123,20.00073264664445)"><path d="M10.5773278125,10.5635732109375C10.6958878125,10.6923212109375,10.6958878125,10.9010622109375,10.5773278125,11.0298062109375L6.9168878125,15.0050062109375L10.569517812499999,18.9717162109375C10.6880678125,19.100466210937498,10.6880678125,19.3092062109375,10.569517812499999,19.4379562109375L10.1401978125,19.9041862109375C10.0216478125,20.032966210937502,9.8294278125,20.032966210937502,9.7108778125,19.9041862109375L5.4268575125,15.2517962109375C5.3838331125,15.2050762109375,5.3564229125,15.147826210937499,5.3446233125,15.0876862109375C5.3153012125,14.9762962109375,5.3410300325,14.8514262109375,5.4218340125,14.763666210937501L9.7186878125,10.0973365109375C9.8372478125,9.9685889109375,10.029457812499999,9.9685898109375,10.148007812500001,10.0973365109375L10.5773278125,10.5635732109375Z" fill-rule="evenodd" fill="#999999" fill-opacity="1"/></g></svg>