<svg xmlns="http://www.w3.org/2000/svg" xmlns:xlink="http://www.w3.org/1999/xlink" fill="none" version="1.1" width="30" height="30" viewBox="0 0 30 30"><defs><clipPath id="master_svg0_672_05539"><rect x="0" y="0" width="30" height="30" rx="0"/></clipPath></defs><g clip-path="url(#master_svg0_672_05539)"><g><path d="M27.1375,9.2250134375C27.1375,9.2250134375,20.775,2.8625144375,20.775,2.8625144375C20.5408,2.6297014375,20.224,2.4990234375,19.8937,2.4990234375C19.5635,2.4990234375,19.2467,2.6297014375,19.0125,2.8625144375C18.8954,2.9787184375,18.8024,3.1169694375,18.7389,3.2692934375C18.6754,3.4216174375,18.6427,3.5850034375,18.6427,3.7500134375C18.6427,3.9150234375,18.6754,4.0784134375,18.7389,4.2307334375C18.8024,4.3830634375,18.8954,4.5213134375,19.0125,4.6375134375C19.0125,4.6375134375,21.25,6.9250134375,21.25,6.9250134375C21.25,6.9250134375,14.475,13.7500234375,14.475,13.7500234375C14.475,13.7500234375,13.225,12.5000234375,13.225,12.5000234375C12.8766,12.1504134375,12.46265,11.8730234375,12.00683,11.6837634375C11.55101,11.4944834375,11.06231,11.3970634375,10.56876,11.3970634375C10.07521,11.3970634375,9.58651,11.4944834375,9.130690000000001,11.6837634375C8.67487,11.8730234375,8.2609,12.1504134375,7.91251,12.5000234375C7.91251,12.5000234375,3.60001,16.7750234375,3.60001,16.7750234375C3.2502,17.1244234375,2.972926,17.5395234375,2.784145,17.9964234375C2.5953629,18.4534234375,2.4987998,18.9431234375,2.5000112592,19.4375234375C2.5000112592,19.4375234375,2.5000112592,23.7500234375,2.5000112592,23.7500234375C2.5000112592,24.7445234375,2.8951000000000002,25.6984234375,3.59836,26.4016234375C4.30163,27.1049234375,5.25545,27.5000234375,6.25001,27.5000234375C6.25001,27.5000234375,10.56251,27.5000234375,10.56251,27.5000234375C11.05691,27.5013234375,11.54666,27.4046234375,12.0036,27.2159234375C12.46054,27.0271234375,12.8756,26.7498234375,13.225,26.4000234375C13.225,26.4000234375,17.5,22.1125234375,17.5,22.1125234375C17.849600000000002,21.7641234375,18.127000000000002,21.3501234375,18.316200000000002,20.8943234375C18.5055,20.4385234375,18.603,19.9498234375,18.603,19.4562234375C18.603,18.9626234375,18.5055,18.4740234375,18.316200000000002,18.0181234375C18.127000000000002,17.5624234375,17.849600000000002,17.1484234375,17.5,16.800023437500002C17.5,16.800023437500002,16.25,15.5500234375,16.25,15.5500234375C16.25,15.5500234375,23.075,8.7500134375,23.075,8.7500134375C23.075,8.7500134375,25.3625,11.0375134375,25.3625,11.0375134375C25.4787,11.1546734375,25.617,11.2476634375,25.7693,11.3111234375C25.9216,11.3745834375,26.085,11.4072634375,26.25,11.4072634375C26.415,11.4072634375,26.5784,11.3745834375,26.7307,11.3111234375C26.883,11.2476634375,27.0213,11.1546734375,27.1375,11.0375134375C27.2604,10.9207334375,27.3584,10.7801734375,27.4253,10.6243834375C27.4921,10.468583437500001,27.5266,10.3008134375,27.5266,10.1312634375C27.5266,9.9617134375,27.4921,9.793943437500001,27.4253,9.6381434375C27.3584,9.482353437499999,27.2604,9.3417834375,27.1375,9.2250134375C27.1375,9.2250134375,27.1375,9.2250134375,27.1375,9.2250134375C27.1375,9.2250134375,27.1375,9.2250134375,27.1375,9.2250134375ZM15.75,20.3375234375C15.75,20.3375234375,11.45001,24.6375234375,11.45001,24.6375234375C11.33321,24.7534234375,11.19469,24.8450234375,11.0424,24.9072234375C10.8901,24.9694234375,10.72703,25.0010234375,10.56251,25.0000234375C10.56251,25.0000234375,6.25001,25.0000234375,6.25001,25.0000234375C5.91849,25.0000234375,5.60055,24.8682234375,5.36613,24.6339234375C5.13171,24.3995234375,5.00001,24.0815234375,5.00001,23.7500234375C5.00001,23.7500234375,5.00001,19.4375234375,5.00001,19.4375234375C4.99906,19.2730234375,5.03059,19.1099234375,5.0928,18.9576234375C5.154999999999999,18.8052234375,5.24666,18.6668234375,5.36251,18.5500234375C5.36251,18.5500234375,9.662510000000001,14.2500234375,9.662510000000001,14.2500234375C9.896709999999999,14.0172234375,10.21353,13.8865234375,10.54376,13.8865234375C10.874,13.8865234375,11.19081,14.0172234375,11.42501,14.2500234375C11.42501,14.2500234375,12.675,15.5000234375,12.675,15.5000234375C12.675,15.5000234375,11.56251,16.625023437499998,11.56251,16.625023437499998C11.3297,16.859323437500002,11.19903,17.1760234375,11.19903,17.506223437499997C11.19903,17.8365234375,11.3297,18.1533234375,11.56251,18.3875234375C11.68517,18.5095234375,11.83185,18.6047234375,11.99323,18.6671234375C12.1546,18.7295234375,12.32716,18.7578234375,12.5,18.7500234375C12.8279,18.7486234375,13.1422,18.6184234375,13.375,18.3875234375C13.375,18.3875234375,14.5,17.2750234375,14.5,17.2750234375C14.5,17.2750234375,15.75,18.5250234375,15.75,18.5250234375C15.8729,18.6417234375,15.9709,18.7824234375,16.0378,18.9381234375C16.104599999999998,19.0939234375,16.1391,19.2618234375,16.1391,19.4313234375C16.1391,19.6007234375,16.104599999999998,19.7685234375,16.0378,19.9244234375C15.9709,20.0801234375,15.8729,20.2208234375,15.75,20.3375234375C15.75,20.3375234375,15.75,20.3375234375,15.75,20.3375234375Z" fill="#D56819" fill-opacity="1"/></g></g></svg>