<svg xmlns="http://www.w3.org/2000/svg" xmlns:xlink="http://www.w3.org/1999/xlink" fill="none" version="1.1" width="30" height="30" viewBox="0 0 30 30"><defs><clipPath id="master_svg0_672_06168"><rect x="0" y="0" width="30" height="30" rx="0"/></clipPath></defs><g clip-path="url(#master_svg0_672_06168)"><g><path d="M16.25,12.5C16.25,12.5,13.75,12.5,13.75,12.5C13.4185,12.5,13.1005,12.6317,12.8661,12.8661C12.6317,13.1005,12.5,13.4185,12.5,13.75C12.5,14.0815,12.6317,14.3995,12.8661,14.6339C13.1005,14.8683,13.4185,15,13.75,15C13.75,15,16.25,15,16.25,15C16.5815,15,16.8995,14.8683,17.1339,14.6339C17.3682,14.3995,17.5,14.0815,17.5,13.75C17.5,13.4185,17.3682,13.1005,17.1339,12.8661C16.8995,12.6317,16.5815,12.5,16.25,12.5C16.25,12.5,16.25,12.5,16.25,12.5ZM22.5,12.5C22.4964,11.3943,22.1264,10.32099,21.4479,9.447949999999999C20.7694,8.57491,19.8206,7.95142,18.75,7.675C18.75,7.675,18.75,6.25,18.75,6.25C18.75,5.25544,18.3549,4.30161,17.651600000000002,3.59835C16.9484,2.895089,15.9945,2.5000000000000004,15,2.5C14.0054,2.500000000000001,13.0516,2.895089,12.34835,3.59835C11.64509,4.30161,11.25,5.25544,11.25,6.25C11.25,6.25,11.25,7.675,11.25,7.675C10.17941,7.95142,9.230640000000001,8.57491,8.552109999999999,9.447949999999999C7.87359,10.32099,7.50359,11.3943,7.5,12.5C6.173909999999999,12.5,4.90215,13.0268,3.96446,13.9645C3.026784,14.9021,2.5000000000000018,16.1739,2.5,17.5C2.5,17.5,2.5,21.25,2.5,21.25C2.500000000000001,22.2445,2.895089,23.1984,3.59835,23.9016C4.30161,24.6049,5.25544,25,6.25,25C6.25,25,7.725,25,7.725,25C7.98289,25.7294,8.460090000000001,26.3613,9.09116,26.8089C9.722249999999999,27.2564,10.47633,27.4979,11.25,27.5C11.25,27.5,18.75,27.5,18.75,27.5C19.5236,27.4979,20.2778,27.2564,20.9089,26.8089C21.5399,26.3613,22.0171,25.7294,22.275,25C22.275,25,23.75,25,23.75,25C24.7445,25,25.6984,24.6049,26.4016,23.9016C27.1049,23.1984,27.5,22.2445,27.5,21.25C27.5,21.25,27.5,17.5,27.5,17.5C27.5,16.1739,26.9732,14.9021,26.0355,13.9645C25.0979,13.0268,23.8261,12.5,22.5,12.5C22.5,12.5,22.5,12.5,22.5,12.5C22.5,12.5,22.5,12.5,22.5,12.5ZM7.5,22.5C7.5,22.5,6.25,22.5,6.25,22.5C5.918480000000001,22.5,5.6005400000000005,22.3682,5.36611,22.1339C5.1317,21.8995,5,21.5815,5,21.25C5,21.25,5,17.5,5,17.5C5,16.837,5.263389999999999,16.2011,5.73224,15.7323C6.20108,15.2634,6.83696,15,7.5,15C7.5,15,7.5,22.5,7.5,22.5C7.5,22.5,7.5,22.5,7.5,22.5ZM13.75,6.25C13.75,5.918480000000001,13.8817,5.6005400000000005,14.1161,5.36611C14.3505,5.1317,14.6685,5,15,5C15.3315,5,15.6495,5.1317,15.8839,5.36611C16.1182,5.6005400000000005,16.25,5.918480000000001,16.25,6.25C16.25,6.25,16.25,7.5,16.25,7.5C16.25,7.5,13.75,7.5,13.75,7.5C13.75,7.5,13.75,6.25,13.75,6.25C13.75,6.25,13.75,6.25,13.75,6.25ZM20,23.75C20,24.0815,19.8682,24.3995,19.6339,24.6339C19.3995,24.8682,19.0815,25,18.75,25C18.75,25,11.25,25,11.25,25C10.91848,25,10.60054,24.8682,10.366109999999999,24.6339C10.1317,24.3995,10,24.0815,10,23.75C10,23.75,10,22.5,10,22.5C10,21.837,10.263390000000001,21.2011,10.73224,20.7323C11.20107,20.2634,11.83696,20,12.5,20C12.5,20,17.5,20,17.5,20C18.163,20,18.7989,20.2634,19.2677,20.7323C19.7366,21.2011,20,21.837,20,22.5C20,22.5,20,23.75,20,23.75C20,23.75,20,23.75,20,23.75ZM20,18.2C19.245,17.7455,18.3813,17.503700000000002,17.5,17.5C17.5,17.5,12.5,17.5,12.5,17.5C11.6188,17.503700000000002,10.75499,17.7455,10,18.2C10,18.2,10,12.5,10,12.5C10,11.83696,10.263390000000001,11.20107,10.73224,10.73224C11.20107,10.263390000000001,11.83696,10,12.5,10C12.5,10,17.5,10,17.5,10C18.163,10,18.7989,10.263390000000001,19.2677,10.73224C19.7366,11.20107,20,11.83696,20,12.5C20,12.5,20,18.2,20,18.2C20,18.2,20,18.2,20,18.2ZM25,21.25C25,21.5815,24.8682,21.8995,24.6339,22.1339C24.3995,22.3682,24.0815,22.5,23.75,22.5C23.75,22.5,22.5,22.5,22.5,22.5C22.5,22.5,22.5,15,22.5,15C23.163,15,23.7989,15.2634,24.2677,15.7323C24.7366,16.2011,25,16.837,25,17.5C25,17.5,25,21.25,25,21.25C25,21.25,25,21.25,25,21.25Z" fill="#D56819" fill-opacity="1"/></g></g></svg>