<svg xmlns="http://www.w3.org/2000/svg" xmlns:xlink="http://www.w3.org/1999/xlink" fill="none" version="1.1" width="30" height="30" viewBox="0 0 30 30"><defs><clipPath id="master_svg0_672_05392"><rect x="30" y="0" width="30" height="30" rx="0"/></clipPath></defs><g transform="matrix(0,1,-1,0,30,-30)" clip-path="url(#master_svg0_672_05392)"><g><path d="M57.3376171875,14.37501220703125C57.3376171875,14.37501220703125,51.7126171875,4.63752220703125,51.7126171875,4.63752220703125C51.6025171875,4.44676720703125,51.4438171875,4.28849820703125,51.2528171875,4.17874420703125C51.062017187500004,4.06899070703125,50.845417187500004,4.01164760103125,50.625117187499995,4.01252206064125C50.625117187499995,4.01252206064125,39.3750771875,4.01252206064125,39.3750771875,4.01252206064125C39.1548171875,4.01164760103125,38.9382371875,4.06899070703125,38.7472671875,4.17874420703125C38.5562871875,4.28849820703125,38.3977171875,4.44676720703125,38.2875771875,4.63752220703125C38.2875771875,4.63752220703125,32.6625861875,14.37501220703125,32.6625861875,14.37501220703125C32.5528750875,14.56501220703125,32.4951171875,14.78061220703125,32.4951171875,15.00001220703125C32.4951171875,15.21941220703125,32.5528750875,15.43501220703125,32.6625861875,15.62501220703125C32.6625861875,15.62501220703125,38.2875771875,25.36251220703125,38.2875771875,25.36251220703125C38.3977171875,25.55321220703125,38.5562871875,25.71151220703125,38.7472671875,25.82131220703125C38.9382371875,25.93101220703125,39.1548171875,25.98841220703125,39.3750771875,25.98751220703125C39.3750771875,25.98751220703125,50.625117187499995,25.98751220703125,50.625117187499995,25.98751220703125C50.845417187500004,25.98841220703125,51.062017187500004,25.93101220703125,51.2528171875,25.82131220703125C51.4438171875,25.71151220703125,51.6025171875,25.55321220703125,51.7126171875,25.36251220703125C51.7126171875,25.36251220703125,57.3376171875,15.62501220703125,57.3376171875,15.62501220703125C57.4472171875,15.43501220703125,57.5050171875,15.21941220703125,57.5050171875,15.00001220703125C57.5050171875,14.78061220703125,57.4472171875,14.56501220703125,57.3376171875,14.37501220703125C57.3376171875,14.37501220703125,57.3376171875,14.37501220703125,57.3376171875,14.37501220703125C57.3376171875,14.37501220703125,57.3376171875,14.37501220703125,57.3376171875,14.37501220703125ZM49.8376171875,23.48751220703125C49.8376171875,23.48751220703125,40.1000771875,23.48751220703125,40.1000771875,23.48751220703125C40.1000771875,23.48751220703125,35.1875771875,15.00001220703125,35.1875771875,15.00001220703125C35.1875771875,15.00001220703125,40.1000771875,6.51252220703125,40.1000771875,6.51252220703125C40.1000771875,6.51252220703125,49.9001171875,6.51252220703125,49.9001171875,6.51252220703125C49.9001171875,6.51252220703125,54.812617187499995,15.00001220703125,54.812617187499995,15.00001220703125C54.812617187499995,15.00001220703125,53.123417187499996,17.88191220703125,51.7136171875,20.28711220703125C50.7039171875,22.00951220703125,49.8376171875,23.48751220703125,49.8376171875,23.48751220703125C49.8376171875,23.48751220703125,49.8376171875,23.48751220703125,49.8376171875,23.48751220703125Z" fill="#D56819" fill-opacity="1"/></g><g transform="matrix(0,-1,1,0,23.5,65.5)"><path d="M44.5,28.5L48.5,31.5L53,32L60,27L55.2576,22.25759C54.5405,21.540461,53.40009,21.473611,52.60409,22.10204L44.5,28.5Z" fill="#D56819" fill-opacity="1"/></g><g transform="matrix(0,-1,1,0,20,60)"><ellipse cx="42" cy="22" rx="2" ry="2" fill="#D56819" fill-opacity="1"/></g></g></svg>