<svg xmlns="http://www.w3.org/2000/svg" xmlns:xlink="http://www.w3.org/1999/xlink" fill="none" version="1.1" width="18.333332061767578" height="18.333332061767578" viewBox="0 0 18.333332061767578 18.333332061767578"><g><path d="M9.16667,1.66667C5.02453,1.66667,1.66667,5.02453,1.66667,9.16667C1.66667,13.3088,5.02453,16.6667,9.16667,16.6667C13.3088,16.6667,16.6667,13.3088,16.6667,9.16667C16.6667,5.02453,13.3088,1.66667,9.16667,1.66667ZM0,9.16667C0,4.10406,4.10406,0,9.16667,0C14.2292,0,18.3333,4.10406,18.3333,9.16667C18.3333,14.2292,14.2292,18.3333,9.16667,18.3333C4.10406,18.3333,0,14.2292,0,9.16667ZM9.16667,5C6.86548,5,5,6.86548,5,9.16667C5,11.4678,6.86548,13.3333,9.16667,13.3333C11.4678,13.3333,13.3333,11.4678,13.3333,9.16667C13.3333,6.86548,11.4678,5,9.16667,5ZM3.33333,9.16667C3.33333,5.94501,5.94501,3.33333,9.16667,3.33333C12.3883,3.33333,15,5.94501,15,9.16667C15,12.3883,12.3883,15,9.16667,15C5.94501,15,3.33333,12.3883,3.33333,9.16667ZM9.16667,8.33333C8.70642,8.33333,8.33333,8.70642,8.33333,9.16667C8.33333,9.62692,8.70642,10,9.16667,10C9.62692,10,10,9.62692,10,9.16667C10,8.70642,9.62692,8.33333,9.16667,8.33333ZM6.66667,9.16667C6.66667,7.78596,7.78596,6.66667,9.16667,6.66667C10.5474,6.66667,11.6667,7.78596,11.6667,9.16667C11.6667,10.5474,10.5474,11.6667,9.16667,11.6667C7.78596,11.6667,6.66667,10.5474,6.66667,9.16667Z" fill-rule="evenodd" fill="#D56819" fill-opacity="1"/></g></svg>