<svg xmlns="http://www.w3.org/2000/svg" xmlns:xlink="http://www.w3.org/1999/xlink" fill="none" version="1.1" width="22" height="22" viewBox="0 0 22 22"><defs><clipPath id="master_svg0_48_3785"><rect x="0" y="0" width="22" height="22" rx="0"/></clipPath></defs><g clip-path="url(#master_svg0_48_3785)"><g><path d="M18.0125,14.905C18.8226,13.6362,19.2521,12.1617,19.25,10.65625C19.25,6.29681,15.7032,2.75,11.34375,2.75C6.98431,2.75,3.4375,6.29681,3.4375,10.65625C3.4375,15.0157,6.98431,18.5625,11.34375,18.5625C12.4031,18.5646,13.4519,18.3525,14.4272,17.9389C14.5337,17.8942,14.6479,17.8778,14.7634,17.8881L18.1383,18.2229L17.906599999999997,15.3299C17.8945,15.1805,17.9317,15.0312,18.0125,14.905ZM20.625,10.65625C20.6268,12.344,20.167,14.0001,19.2954,15.4454L19.5745,18.9331C19.6102,19.3609,19.2488,19.716,18.8217,19.6728L14.7991,19.2734C13.7005,19.7141,12.5275,19.9396,11.34375,19.9375C6.22531,19.9375,2.0625,15.7747,2.0625,10.65625C2.0625,5.5385,6.22531,1.375,11.34375,1.375C16.4615,1.375,20.625,5.5385,20.625,10.65625ZM7.90625,9.625C8.47579,9.625,8.9375,10.08671,8.9375,10.65625C8.9375,11.22579,8.47579,11.6875,7.90625,11.6875C7.33671,11.6875,6.875,11.22579,6.875,10.65625C6.875,10.08671,7.33671,9.625,7.90625,9.625ZM11.34375,9.625C11.91329,9.625,12.375,10.08671,12.375,10.65625C12.375,11.22579,11.91329,11.6875,11.34375,11.6875C10.77421,11.6875,10.3125,11.22579,10.3125,10.65625C10.3125,10.08671,10.77421,9.625,11.34375,9.625ZM14.7813,9.625C15.3508,9.625,15.8125,10.08671,15.8125,10.65625C15.8125,11.22579,15.3508,11.6875,14.7813,11.6875C14.2117,11.6875,13.75,11.22579,13.75,10.65625C13.75,10.08671,14.2117,9.625,14.7813,9.625Z" fill="#D56819" fill-opacity="1"/></g></g></svg>