<svg xmlns="http://www.w3.org/2000/svg" xmlns:xlink="http://www.w3.org/1999/xlink" fill="none" version="1.1" width="24" height="24" viewBox="0 0 24 24"><defs><clipPath id="master_svg0_608_16333"><rect x="0" y="0" width="24" height="24" rx="0"/></clipPath></defs><g clip-path="url(#master_svg0_608_16333)"><g><path d="M17.0000017578125,9C17.0000017578125,9,6.9999917578125,9,6.9999917578125,9C6.7347717578125,9,6.4804217578125,9.105360000000001,6.2928817578125,9.29289C6.1053417578125,9.48043,5.9999917578125,9.73478,5.9999917578125,10C5.9999917578125,10.26522,6.1053417578125,10.51957,6.2928817578125,10.70711C6.4804217578125,10.89464,6.7347717578125,11,6.9999917578125,11C6.9999917578125,11,17.0000017578125,11,17.0000017578125,11C17.2652017578125,11,17.519601757812502,10.89464,17.707101757812502,10.70711C17.894601757812502,10.51957,18.0000017578125,10.26522,18.0000017578125,10C18.0000017578125,9.73478,17.894601757812502,9.48043,17.707101757812502,9.29289C17.519601757812502,9.105360000000001,17.2652017578125,9,17.0000017578125,9C17.0000017578125,9,17.0000017578125,9,17.0000017578125,9ZM13.0000017578125,13C13.0000017578125,13,6.9999917578125,13,6.9999917578125,13C6.7347717578125,13,6.4804217578125,13.1054,6.2928817578125,13.2929C6.1053417578125,13.4804,5.9999917578125,13.7348,5.9999917578125,14C5.9999917578125,14.2652,6.1053417578125,14.5196,6.2928817578125,14.7071C6.4804217578125,14.8946,6.7347717578125,15,6.9999917578125,15C6.9999917578125,15,13.0000017578125,15,13.0000017578125,15C13.2652017578125,15,13.5196017578125,14.8946,13.7071017578125,14.7071C13.8946017578125,14.5196,14.0000017578125,14.2652,14.0000017578125,14C14.0000017578125,13.7348,13.8946017578125,13.4804,13.7071017578125,13.2929C13.5196017578125,13.1054,13.2652017578125,13,13.0000017578125,13C13.0000017578125,13,13.0000017578125,13,13.0000017578125,13ZM12.0000017578125,2C10.6867717578125,1.9999999999999993,9.3864117578125,2.258658,8.1731517578125,2.761205C6.9599017578125,3.26375,5.8575017578125,4.00035,4.9289217578125,4.928929999999999C3.0535517578125,6.8043,1.9999881578125,9.34784,1.9999881578125,12C1.9912459578125,14.3091,2.7907807578125,16.5485,4.2599917578125,18.33C4.2599917578125,18.33,2.2599877578125,20.33,2.2599877578125,20.33C2.1212307578125,20.4706,2.0272342578125,20.6492,1.9898601578125,20.8432C1.9524859578125,21.0372,1.9734086578125,21.2379,2.0499880578125,21.42C2.1330457578125,21.5999,2.2676917578125,21.7511,2.4368347578125,21.8544C2.6059777578125,21.9577,2.8019887578125,22.0083,2.9999917578125,22C2.9999917578125,22,12.0000017578125,22,12.0000017578125,22C14.6522017578125,22,17.1957017578125,20.9464,19.0711017578125,19.0711C20.9464017578125,17.195700000000002,22.0000017578125,14.6522,22.0000017578125,12C22.0000017578125,9.34784,20.9464017578125,6.8043,19.0711017578125,4.928929999999999C17.1957017578125,3.0535699999999997,14.6522017578125,2.000000000000001,12.0000017578125,2C12.0000017578125,2,12.0000017578125,2,12.0000017578125,2C12.0000017578125,2,12.0000017578125,2,12.0000017578125,2ZM12.0000017578125,20C12.0000017578125,20,5.4099917578125005,20,5.4099917578125005,20C5.4099917578125005,20,6.3399917578125,19.07,6.3399917578125,19.07C6.5262417578125,18.8826,6.6307817578125,18.6292,6.6307817578125,18.365C6.6307817578125,18.1008,6.5262417578125,17.8474,6.3399917578125,17.66C5.0305717578125,16.352,4.2151617578125,14.6305,4.0326817578125,12.7888C3.8501917578125,10.94705,4.3119317578125,9.09901,5.3392117578125,7.55952C6.3665017578125,6.02004,7.8957817578125,4.88436,9.666501757812501,4.3459699999999994C11.4372317578125,3.8075900000000003,13.3398017578125,3.8998,15.0502017578125,4.60691C16.760601757812502,5.31402,18.1728017578125,6.59227,19.0464017578125,8.22389C19.9200017578125,9.855509999999999,20.2009017578125,11.73954,19.8411017578125,13.555C19.4814017578125,15.3705,18.5033017578125,17.005000000000003,17.0735017578125,18.1802C15.6438017578125,19.3554,13.8507017578125,19.9985,12.0000017578125,20C12.0000017578125,20,12.0000017578125,20,12.0000017578125,20C12.0000017578125,20,12.0000017578125,20,12.0000017578125,20Z" fill="#999999" fill-opacity="1"/></g></g></svg>