<svg xmlns="http://www.w3.org/2000/svg" xmlns:xlink="http://www.w3.org/1999/xlink" fill="none" version="1.1" width="22" height="22" viewBox="0 0 22 22"><defs><clipPath id="master_svg0_1_06960"><rect x="0" y="0" width="22" height="22" rx="0"/></clipPath></defs><g clip-path="url(#master_svg0_1_06960)"><g><path d="M18.022100000000002,18.506355859375L18.022100000000002,10.532715859375C18.0225,10.359095859375,17.9566,10.191875859375,17.837899999999998,10.065215859375L11.20213,2.940655859375C11.0749,2.820205859375,10.90638,2.753045859375,10.73119,2.752965859375L10.70506,2.752965859375C10.52289,2.759515859375,10.35077,2.838155859375,10.22656,2.9715858593749997L3.62175,10.065215859375C3.5030099999999997,10.191875859375,3.43711,10.359095859375,3.4375,10.532715859375L3.4375,18.505655859375C3.4375,18.885355859375,3.7453000000000003,19.193155859375,4.125,19.193155859375L17.334600000000002,19.193155859375C17.7143,19.193155859375,18.022100000000002,18.885355859375,18.022100000000002,18.505655859375L18.022100000000002,18.506355859375ZM18.8437,9.128155859375C19.2005,9.511085859375,19.3971,10.010905859375,19.3971,10.533405859375L19.3971,18.506355859375C19.3971,19.643455859375,18.4718,20.568855859375,17.334600000000002,20.568855859375L4.125,20.568855859375C2.987875,20.568855859375,2.0625,19.643455859375,2.0625,18.506355859375L2.0625,10.532715859375C2.0625,10.010215859375,2.259125,9.510405859375,2.615938,9.127465859375L9.220749999999999,2.0338378593749997C9.59274,1.632372859375,10.10991,1.396442759375,10.65694,1.378650529375C11.20075,1.342900559375,11.73288,1.555337859375,12.1351,1.930712859375C12.1653,1.9582128593750001,12.1976,1.990525859375,12.2293,2.022837859375C12.2334,2.0269628593749998,12.2368,2.029712859375,12.2396,2.0338378593749997L18.8437,9.127465859375L18.8437,9.128155859375ZM11.66275,12.490055859375C12.04245,12.490055859375,12.3503,12.797855859375,12.3503,13.177555859375C12.3503,13.557255859375,12.04245,13.865055859375,11.66275,13.865055859375L9.772120000000001,13.865055859375C9.392430000000001,13.865055859375,9.084620000000001,13.557255859375,9.084620000000001,13.177555859375C9.084620000000001,12.797855859375,9.392430000000001,12.490055859375,9.772120000000001,12.490055859375L11.66275,12.490055859375Z" fill="#D56819" fill-opacity="1"/></g></g></svg>