<svg xmlns="http://www.w3.org/2000/svg" xmlns:xlink="http://www.w3.org/1999/xlink" fill="none" version="1.1" width="24" height="24" viewBox="0 0 24 24"><defs><clipPath id="master_svg0_608_16334"><rect x="0" y="0" width="24" height="24" rx="0"/></clipPath></defs><g clip-path="url(#master_svg0_608_16334)"><g><path d="M19.9999779296875,8.00000421875C19.9999779296875,8.00000421875,13.9999779296875,2.74000621875,13.9999779296875,2.74000621875C13.4499779296875,2.24805121875,12.7379079296875,1.9760742187500002,11.9999679296875,1.97607421875C11.2620379296875,1.9760742187500002,10.5499979296875,2.24805121875,9.9999679296875,2.74000621875C9.9999679296875,2.74000621875,3.9999679296875,8.00000421875,3.9999679296875,8.00000421875C3.6823409296875003,8.28408421875,3.4288729296875,8.63256421875,3.2564449296875,9.02225421875C3.0840164296875,9.41193421875,2.9965853696875,9.83388421875,2.9999727238875,10.26000421875C2.9999727238875,10.26000421875,2.9999727238875,18.99997421875,2.9999727238875,18.99997421875C2.9999727238875,19.79567421875,3.3160429296875,20.55867421875,3.8786529296875,21.12137421875C4.4412579296875005,21.68397421875,5.2043279296875,21.99997421875,5.9999679296875,21.99997421875C5.9999679296875,21.99997421875,17.9999779296875,21.99997421875,17.9999779296875,21.99997421875C18.7955779296875,21.99997421875,19.5586779296875,21.68397421875,20.1212779296875,21.12137421875C20.6838779296875,20.55867421875,20.9999779296875,19.79567421875,20.9999779296875,18.99997421875C20.9999779296875,18.99997421875,20.9999779296875,10.25000421875,20.9999779296875,10.25000421875C21.0019779296875,9.82556421875,20.9137779296875,9.40554421875,20.7414779296875,9.01768421875C20.5690779296875,8.629824218749999,20.3163779296875,8.28296421875,19.9999779296875,8.00000421875C19.9999779296875,8.00000421875,19.9999779296875,8.00000421875,19.9999779296875,8.00000421875C19.9999779296875,8.00000421875,19.9999779296875,8.00000421875,19.9999779296875,8.00000421875ZM13.9999779296875,19.99997421875C13.9999779296875,19.99997421875,9.9999679296875,19.99997421875,9.9999679296875,19.99997421875C9.9999679296875,19.99997421875,9.9999679296875,14.99997421875,9.9999679296875,14.99997421875C9.9999679296875,14.73477421875,10.105327929687501,14.48047421875,10.2928679296875,14.29287421875C10.4803979296875,14.10537421875,10.7347579296875,13.99997421875,10.9999679296875,13.99997421875C10.9999679296875,13.99997421875,12.9999779296875,13.99997421875,12.9999779296875,13.99997421875C13.2651779296875,13.99997421875,13.5195779296875,14.10537421875,13.7070779296875,14.29287421875C13.8945779296875,14.48047421875,13.9999779296875,14.73477421875,13.9999779296875,14.99997421875C13.9999779296875,14.99997421875,13.9999779296875,19.99997421875,13.9999779296875,19.99997421875C13.9999779296875,19.99997421875,13.9999779296875,19.99997421875,13.9999779296875,19.99997421875ZM18.9999779296875,18.99997421875C18.9999779296875,19.26517421875,18.8945779296875,19.51957421875,18.7070779296875,19.70707421875C18.5195779296875,19.89467421875,18.2651779296875,19.99997421875,17.9999779296875,19.99997421875C17.9999779296875,19.99997421875,15.9999779296875,19.99997421875,15.9999779296875,19.99997421875C15.9999779296875,19.99997421875,15.9999779296875,14.99997421875,15.9999779296875,14.99997421875C15.9999779296875,14.20437421875,15.6838779296875,13.44127421875,15.1212779296875,12.87867421875C14.5586779296875,12.31607421875,13.7955779296875,11.99997421875,12.9999779296875,11.99997421875C12.9999779296875,11.99997421875,10.9999679296875,11.99997421875,10.9999679296875,11.99997421875C10.2043179296875,11.99997421875,9.441257929687499,12.31607421875,8.8786479296875,12.87867421875C8.3160379296875,13.44127421875,7.9999679296875,14.20437421875,7.9999679296875,14.99997421875C7.9999679296875,14.99997421875,7.9999679296875,19.99997421875,7.9999679296875,19.99997421875C7.9999679296875,19.99997421875,5.9999679296875,19.99997421875,5.9999679296875,19.99997421875C5.7347579296875,19.99997421875,5.4803979296875,19.89467421875,5.2928679296875,19.70707421875C5.105327929687499,19.51957421875,4.9999679296875,19.26517421875,4.9999679296875,18.99997421875C4.9999679296875,18.99997421875,4.9999679296875,10.25000421875,4.9999679296875,10.25000421875C5.0001479296875,10.10802421875,5.0305679296875,9.96770421875,5.089187929687499,9.83838421875C5.1478179296875,9.709064218750001,5.2333079296875,9.59371421875,5.3399779296875,9.50000421875C5.3399779296875,9.50000421875,11.3399679296875,4.25000421875,11.3399679296875,4.25000421875C11.5224579296875,4.0896842187499995,11.7570679296875,4.00127421875,11.9999679296875,4.00127421875C12.2428779296875,4.00127421875,12.4774879296875,4.0896842187499995,12.6599679296875,4.25000421875C12.6599679296875,4.25000421875,18.6599779296875,9.50000421875,18.6599779296875,9.50000421875C18.7666779296875,9.59371421875,18.8521779296875,9.709064218750001,18.910777929687498,9.83838421875C18.9693779296875,9.96770421875,18.9997779296875,10.10802421875,18.9999779296875,10.25000421875C18.9999779296875,10.25000421875,18.9999779296875,18.99997421875,18.9999779296875,18.99997421875C18.9999779296875,18.99997421875,18.9999779296875,18.99997421875,18.9999779296875,18.99997421875Z" fill="#999999" fill-opacity="1"/></g></g></svg>