<svg xmlns="http://www.w3.org/2000/svg" xmlns:xlink="http://www.w3.org/1999/xlink" fill="none" version="1.1" width="24" height="24" viewBox="0 0 24 24"><defs><clipPath id="master_svg0_1_06919"><rect x="0" y="0" width="24" height="24" rx="0"/></clipPath></defs><g clip-path="url(#master_svg0_1_06919)"><g><path d="M19.89394287109375,18.88070390625C21.55794287109375,16.97610390625,22.46684287109375,14.56310390625,22.46684287109375,12.01010390625C22.46684287109375,9.21623390625,21.37884287109375,6.58953390625,19.40324287109375,4.61394390625C17.458042871093753,2.66871390625,14.88144287109375,1.58481940625,12.13564287109375,1.55193770625C12.09054287109375,1.53788322625,11.89454287109375,1.53805110625,11.84914287109375,1.55229750625C9.11435287109375,1.59254210625,6.54924287109375,2.67567390625,4.61097287109375,4.61394390625C2.66868287109375,6.55626390625,1.58509257109375,9.12804390625,1.54911693109375,11.86920390625C1.53906776109375,11.90780390625,1.53887585109375,12.07080390625,1.54861328109375,12.10890390625C1.57398807109375,14.86580390625,2.65872287109375,17.45400390625,4.61097287109375,19.40620390625C6.58656287109375,21.38180390625,9.213242871093751,22.46980390625,12.00714287109375,22.46980390625C14.80104287109375,22.46980390625,17.42774287109375,21.38180390625,19.40324287109375,19.40620390625C19.54714287109375,19.26230390625,19.68584287109375,19.11460390625,19.82024287109375,18.96390390625C19.83214287109375,18.95330390625,19.84374287109375,18.94220390625,19.85474287109375,18.93020390625C19.86914287109375,18.91440390625,19.88194287109375,18.89770390625,19.89394287109375,18.88070390625ZM2.51829987109375,12.46980390625L6.91286287109375,12.46980390625C6.94385287109375,14.00920390625,7.12975287109375,15.45260390625,7.44034287109375,16.73810390625C5.99448287109375,17.129203906249998,5.07739287109375,17.63740390625,4.60260287109375,17.95470390625C3.38226287109375,16.43760390625,2.61742287109375,14.53970390625,2.51829987109375,12.46980390625ZM4.59097287109375,6.07994390625C5.06184287109375,6.39768390625,5.97946287109375,6.91108390625,7.43489287109375,7.30479390625C7.13025287109375,8.57341390625,6.94675287109375,9.99490390625,6.91356287109375,11.51025390625L2.52014687109375,11.51025390625C2.62680287109375,9.462513906249999,3.38526287109375,7.58473390625,4.59097287109375,6.07994390625ZM21.49414287109375,11.51022390625L17.10064287109375,11.51022390625C17.06754287109375,9.99543390625,16.88414287109375,8.57442390625,16.57964287109375,7.30614390625C18.03174287109375,6.91489390625,18.95234287109375,6.40509390625,19.42894287109375,6.08690390625C20.63134287109375,7.59054390625,21.38764287109375,9.46568390625,21.49414287109375,11.51022390625ZM16.14094287109375,11.51022390625L12.47264287109375,11.51022390625L12.47264287109375,7.85306390625C13.69634287109375,7.82740390625,14.74854287109375,7.70180390625,15.64314287109375,7.52415390625C15.93754287109375,8.74610390625,16.10824287109375,10.09921390625,16.14094287109375,11.51022390625ZM12.47264287109375,6.89340390625L12.47264287109375,2.57628390625C13.33614287109375,2.82000390625,14.17844287109375,3.72954390625,14.83814287109375,5.15477390625C15.04464287109375,5.60092390625,15.22824287109375,6.08388390625,15.38814287109375,6.59667390625C14.56714287109375,6.75540390625,13.59984287109375,6.86872390625,12.47264287109375,6.89340390625ZM11.51306287109375,2.58460390625L11.51306287109375,6.89254390625C10.39966287109375,6.86613390625,9.44168287109375,6.75187390625,8.627432871093749,6.59248390625C8.786972871093749,6.08124390625,8.97016287109375,5.59967390625,9.17609287109375,5.15472390625C9.82856287109375,3.74520390625,10.65960287109375,2.84012390625,11.51306287109375,2.58460390625ZM11.51306287109375,7.85258390625L11.51306287109375,11.51022390625L7.87334287109375,11.51022390625C7.90596287109375,10.09897390625,8.07677287109375,8.745643906249999,8.371242871093749,7.52352390625C9.25802287109375,7.70014390625,10.30049287109375,7.82555390625,11.51306287109375,7.85258390625ZM7.87250287109375,12.46980390625L11.51306287109375,12.46980390625L11.51306287109375,16.188603906250002C10.30347287109375,16.21660390625,9.262602871093751,16.34240390625,8.37661287109375,16.51920390625C8.07602287109375,15.27960390625,7.90298287109375,13.90420390625,7.87250287109375,12.46980390625ZM11.51306287109375,17.148603906250003L11.51306287109375,21.43560390625C10.65958287109375,21.18010390625,9.82856287109375,20.27500390625,9.17611287109375,18.86540390625C8.972682871093749,18.42590390625,8.791512871093751,17.95060390625,8.63336287109375,17.44630390625C9.44523287109375,17.28860390625,10.40094287109375,17.17550390625,11.51306287109375,17.148603906250003ZM12.47264287109375,21.44390390625L12.47264287109375,17.147103906250003C13.59544287109375,17.17120390625,14.56104287109375,17.284503906250002,15.38164287109375,17.44380390625C15.22334287109375,17.94900390625,15.04184287109375,18.42520390625,14.83814287109375,18.86540390625C14.17844287109375,20.29060390625,13.33614287109375,21.20020390625,12.47264287109375,21.44390390625ZM12.47264287109375,16.187403906249997L12.47264287109375,12.46980390625L16.14174287109375,12.46980390625C16.11134287109375,13.90180390625,15.93874287109375,15.27490390625,15.63914287109375,16.51290390625C14.74584287109375,16.336303906250002,13.69494287109375,16.21200390625,12.47264287109375,16.187403906249997ZM17.101442871093752,12.46980390625L21.49594287109375,12.46980390625C21.39704287109375,14.53560390625,20.63504287109375,16.43010390625,19.41894287109375,17.94570390625C18.93914287109375,17.62530390625,18.02124287109375,17.11830390625,16.575842871093748,16.730003906249998C16.88524287109375,15.44650390625,17.07044287109375,14.00600390625,17.101442871093752,12.46980390625ZM18.78564287109375,5.36122390625C18.35604287109375,5.63241390625,17.55964287109375,6.04924390625,16.32794287109375,6.38060390625C15.87574287109375,4.90273390625,15.24724287109375,3.68519390625,14.49844287109375,2.8420939062499997C16.14844287109375,3.29095390625,17.62114287109375,4.17422390625,18.78564287109375,5.36122390625ZM9.51582287109375,2.8420939062499997C8.76803287109375,3.68397390625,8.14025287109375,4.89918390625,7.68818287109375,6.37418390625C6.45998287109375,6.04039390625,5.66388287109375,5.62185390625,5.23705287109375,5.35259390625C6.40023287109375,4.16993390625,7.86979287109375,3.28987390625,9.51582287109375,2.8420939062499997ZM5.24808287109375,18.67890390625C5.67662287109375,18.40850390625,6.46914287109375,17.99380390625,7.69336287109375,17.66320390625C8.14505287109375,19.13050390625,8.77093287109375,20.33950390625,9.51582287109375,21.17810390625C7.87499287109375,20.73170390625,6.40951287109375,19.85590390625,5.24808287109375,18.67890390625ZM14.49844287109375,21.17810390625C15.24374287109375,20.33890390625,15.86994287109375,19.12900390625,16.32164287109375,17.66050390625C17.54004287109375,17.98920390625,18.33664287109375,18.40190390625,18.77174287109375,18.67320390625C17.60934287109375,19.85310390625,16.14184287109375,20.73100390625,14.49844287109375,21.17810390625Z" fill="#FFFFFF" fill-opacity="1"/><path d="M20.03884287109375,19.09920390625L20.03904287109375,19.09910390625Q20.06474287109375,19.07100390625,20.09024287109375,19.03590390625Q22.71684287109375,16.02340390625,22.71684287109375,12.01010390625Q22.71684287109375,9.86495390625,21.90684287109375,7.90949390625Q21.09694287109375,5.95401390625,19.58004287109375,4.4371639062499995Q18.08704287109375,2.94416390625,16.16674287109375,2.13540990625Q14.26274287109375,1.33357190625,12.17184287109375,1.30240190625Q11.99214287109375,1.25625990625,11.81234287109375,1.30285990625Q9.72969287109375,1.33960590625,7.83400287109375,2.14109490625Q5.92179287109375,2.94957390625,4.43420287109375,4.4371639062499995Q2.94347287109375,5.92791390625,2.13483187109375,7.84483390625Q1.33204287109375,9.74790390625,1.29953187109375,11.83840390625Q1.2673548710937501,11.98850390625,1.2989098710937501,12.13860390625Q1.32335587109375,14.24110390625,2.12668087109375,16.15600390625Q2.9357128710937497,18.08450390625,4.43420287109375,19.58300390625Q5.95105287109375,21.09990390625,7.90652287109375,21.90990390625Q9.86198287109375,22.71980390625,12.00714287109375,22.71980390625Q14.15224287109375,22.71980390625,16.10774287109375,21.90990390625Q18.06324287109375,21.09990390625,19.58004287109375,19.58300390625Q19.78764287109375,19.37540390625,19.99814287109375,19.14010390625Q20.02024287109375,19.11960390625,20.03884287109375,19.09920390625ZM19.68924287109375,18.73710390625Q19.67834287109375,18.75260390625,19.67054287109375,18.76110390625L19.67034287109375,18.76130390625Q19.66384287109375,18.76840390625,19.65364287109375,18.77750390625L19.64314287109375,18.78690390625L19.63364287109375,18.79750390625Q19.42834287109375,19.02760390625,19.22654287109375,19.22950390625Q17.77994287109375,20.67600390625,15.91634287109375,21.44790390625Q14.05284287109375,22.21980390625,12.00714287109375,22.21980390625Q9.96144287109375,22.21980390625,8.09786287109375,21.44790390625Q6.23428287109375,20.67600390625,4.787752871093749,19.22950390625Q3.35876287109375,17.80050390625,2.58775287109375,15.96260390625Q1.8171878710937501,14.12580390625,1.79860287109375,12.10660390625L1.79832387109375,12.07630390625L1.79082187109375,12.04700390625Q1.77614187109375,11.98950390625,1.79107687109375,11.93210390625L1.79869787109375,11.90280390625L1.79909487109375,11.87250390625Q1.85352687109375,7.72498390625,4.787752871093749,4.79071390625Q7.71531287109375,1.86315790625,11.85274287109375,1.80227090625L11.88924287109375,1.80173490625L11.92394287109375,1.79083090625Q11.99274287109375,1.76925090625,12.06134287109375,1.79062290625L12.09614287109375,1.80148290625L12.13264287109375,1.80191990625Q16.28754287109375,1.85167290625,19.22644287109375,4.79072390625Q20.67304287109375,6.23724390625,21.44494287109375,8.10083390625Q22.21684287109375,9.96441390625,22.21684287109375,12.01010390625Q22.21684287109375,15.84200390625,19.70564287109375,18.71620390625L19.69684287109375,18.72620390625L19.68924287109375,18.73710390625ZM12.47814287109375,7.14334390625Q14.05634287109375,7.10879390625,15.43554287109375,6.84213390625L15.70994287109375,6.78908390625L15.62674287109375,6.52228390625Q15.37974287109375,5.72974390625,15.06504287109375,5.04976390625Q13.99934287109375,2.74743390625,12.54054287109375,2.33568390625L12.22264287109375,2.24594990625L12.22264287109375,7.14893390625L12.47814287109375,7.14334390625ZM11.44136287109375,2.3451099062500003Q10.00166287109375,2.7761439062499997,8.94921287109375,5.04970390625L8.94921287109375,5.04972390625Q8.63536287109375,5.72785390625,8.388792871093749,6.51800390625L8.30570287109375,6.78424390625L8.57941287109375,6.83782390625Q9.94658287109375,7.10545390625,11.50714287109375,7.14247390625L11.76304287109375,7.14854390625L11.76304287109375,2.24879290625L11.44136287109375,2.3451099062500003ZM9.450192871093751,2.60086390625Q6.91433287109375,3.29070390625,5.05881287109375,5.17729390625L4.841242871093749,5.39849390625L5.10366287109375,5.56403390625Q6.12527287109375,6.20850390625,7.62262287109375,6.61543390625L7.85626287109375,6.67892390625L7.92721287109375,6.44743390625Q8.601252871093749,4.24818390625,9.70273287109375,3.00811390625L10.26019287109375,2.38051390625L9.450192871093751,2.60086390625ZM18.96404287109375,5.18615390625Q17.106242871093748,3.2924039062499997,14.56404287109375,2.60086390625L13.75404287109375,2.38052290625L14.31154287109375,3.00811390625Q15.41454287109375,4.24998390625,16.08894287109375,6.45376390625L16.15964287109375,6.68479390625L16.39294287109375,6.62202390625Q17.89824287109375,6.21703390625,18.91904287109375,5.57263390625L19.18104287109375,5.4072739062499995L18.96404287109375,5.18615390625ZM15.06244287109375,6.40220390625Q14.85834287109375,5.79357390625,14.61124287109375,5.25978390625Q13.76844287109375,3.43895390625,12.72264287109375,2.93751390625L12.72264287109375,6.63626390625Q13.95814287109375,6.59362390625,15.06244287109375,6.40220390625ZM9.402962871093749,5.25974390625L9.40297287109375,5.2597239062500005Q10.23308287109375,3.4664839062499997,11.26306287109375,2.95211390625L11.26306287109375,6.63490390625Q10.04461287109375,6.59032390625,8.95295287109375,6.39863390625Q9.15664287109375,5.79196390625,9.402962871093749,5.25974390625ZM5.64319287109375,5.3035039062500005Q7.03908287109375,3.97301390625,8.82184287109375,3.32411390625Q8.05007287109375,4.439573906250001,7.52262287109375,6.06779390625Q6.44086287109375,5.75174390625,5.64319287109375,5.3035039062500005ZM15.19234287109375,3.32410390625Q15.96584287109375,4.44196390625,16.49384287109375,6.07478390625Q17.58174287109375,5.75999390625,18.37984287109375,5.31191390625Q16.980942871093752,3.97507390625,15.19234287109375,3.32410390625ZM4.39587287109375,5.92362390625Q2.43320387109375,8.37313390625,2.2704848710937497,11.49724390625L2.25678687109375,11.76020390625L7.15814287109375,11.76020390625L7.16350287109375,11.51572390625Q7.21195287109375,9.30387390625,7.67798287109375,7.36317390625L7.73471287109375,7.12691390625L7.50017287109375,7.06347390625Q5.82315287109375,6.60980390625,4.73081287109375,5.87271390625L4.53989287109375,5.74388390625L4.39587287109375,5.92362390625ZM21.74374287109375,11.49722390625Q21.58124287109375,8.37812390625,19.62414287109375,5.93076390625L19.48084287109375,5.75159390625L19.29004287109375,5.87899390625Q18.19064287109375,6.61317390625,16.51464287109375,7.06474390625L16.27984287109375,7.12801390625L16.336542871093748,7.36449390625Q16.80234287109375,9.30482390625,16.85074287109375,11.51569390625L16.85604287109375,11.76020390625L21.75744287109375,11.76020390625L21.74374287109375,11.49722390625ZM2.78697287109375,11.26025390625Q2.99839287109375,8.56824390625,4.64666287109375,6.41428390625Q5.67626287109375,7.05922390625,7.13714287109375,7.48113390625Q6.73488287109375,9.26340390625,6.67025287109375,11.26025390625L2.78697287109375,11.26025390625ZM19.37244287109375,6.42054390625Q21.01614287109375,8.572503906249999,21.22724287109375,11.26022390625L17.343942871093752,11.26022390625Q17.27944287109375,9.264443906250001,16.87744287109375,7.48272390625Q18.33764287109375,7.06274390625,19.37244287109375,6.42054390625ZM11.51863287109375,7.60264390625Q9.86307287109375,7.56574390625,8.420072871093751,7.27834390625L8.18447287109375,7.23142390625L8.12820287109375,7.46496390625Q7.67312287109375,9.35363390625,7.62340287109375,11.50444390625L7.61749287109375,11.76020390625L11.76304287109375,11.76020390625L11.76304287109375,7.60809390625L11.51863287109375,7.60264390625ZM16.39084287109375,11.50444390625Q16.34114287109375,9.354033906249999,15.88614287109375,7.46560390625L15.82994287109375,7.23217390625L15.59444287109375,7.27894390625Q14.13844287109375,7.56807390625,12.46744287109375,7.60312390625L12.22264287109375,7.60825390625L12.22264287109375,11.76020390625L16.39674287109375,11.76020390625L16.39084287109375,11.50444390625ZM8.56017287109375,7.81416390625Q8.19426287109375,9.43720390625,8.13068287109375,11.26022390625L11.26306287109375,11.26022390625L11.26306287109375,8.09570390625Q9.83485287109375,8.047763906250001,8.56017287109375,7.81416390625ZM15.45414287109375,7.81466390625Q15.81994287109375,9.43751390625,15.88354287109375,11.26022390625L12.72264287109375,11.26022390625L12.72264287109375,8.09650390625Q14.16624287109375,8.050013906250001,15.45414287109375,7.81466390625ZM2.26858587109375,12.48180390625Q2.4198378710937503,15.64010390625,4.40781287109375,18.11140390625L4.551232871093751,18.28960390625L4.74149287109375,18.16250390625Q5.83651287109375,17.430903906250002,7.50561287109375,16.97940390625L7.74049287109375,16.91590390625L7.68334287109375,16.679403906250002Q7.20805287109375,14.71220390625,7.16281287109375,12.46480390625L7.15788287109375,12.21980390625L2.25604087109375,12.21980390625L2.26858587109375,12.48180390625ZM7.62255287109375,12.47510390625Q7.66903287109375,14.66210390625,8.133662871093751,16.57810390625L8.19020287109375,16.81130390625L8.425512871093751,16.76430390625Q9.86730287109375,16.476803906249998,11.51885287109375,16.43850390625L11.76304287109375,16.43290390625L11.76304287109375,12.21980390625L7.61713287109375,12.21980390625L7.62255287109375,12.47510390625ZM12.46764287109375,16.437403906249997Q14.13794287109375,16.47100390625,15.59064287109375,16.75810390625L15.82574287109375,16.80460390625L15.88204287109375,16.57170390625Q16.345242871093753,14.65820390625,16.39164287109375,12.47510390625L16.39714287109375,12.21980390625L12.22264287109375,12.21980390625L12.22264287109375,16.432403906250002L12.46764287109375,16.437403906249997ZM16.851442871093752,12.46480390625Q16.80624287109375,14.70730390625,16.33284287109375,16.67140390625L16.275742871093748,16.90820390625L16.51094287109375,16.97140390625Q18.18224287109375,17.420503906249998,19.28004287109375,18.15360390625L19.47054287109375,18.28080390625L19.61394287109375,18.10210390625Q21.59474287109375,15.63370390625,21.74564287109375,12.48180390625L21.75824287109375,12.21980390625L16.85634287109375,12.21980390625L16.851442871093752,12.46480390625ZM16.87394287109375,16.55330390625Q18.32984287109375,16.97120390625,19.36274287109375,17.61220390625Q21.02864287109375,15.43920390625,21.23024287109375,12.71980390625L17.34514287109375,12.71980390625Q17.28314287109375,14.74710390625,16.87394287109375,16.55330390625ZM4.65850287109375,17.62130390625Q5.68872287109375,16.981503906249998,7.14227287109375,16.56180390625Q6.73126287109375,14.75210390625,6.66912287109375,12.71980390625L2.78398287109375,12.71980390625Q2.9860828710937497,15.44530390625,4.65850287109375,17.62130390625ZM15.45034287109375,16.22260390625Q15.82374287109375,14.57450390625,15.88484287109375,12.71980390625L12.72264287109375,12.71980390625L12.72264287109375,15.94380390625Q14.16524287109375,15.98900390625,15.45034287109375,16.22260390625ZM8.56519287109375,16.228503906249998Q8.19060287109375,14.57810390625,8.12936287109375,12.71980390625L11.26306287109375,12.71980390625L11.26306287109375,15.94570390625Q9.83840287109375,15.99470390625,8.56519287109375,16.228503906249998ZM12.54054287109375,21.68450390625Q13.99934287109375,21.27270390625,15.06504287109375,18.97040390625Q15.37534287109375,18.30000390625,15.62024287109375,17.51850390625L15.70384287109375,17.25160390625L15.42924287109375,17.19840390625Q14.05074287109375,16.930903906250002,12.47804287109375,16.89720390625L12.22264287109375,16.89170390625L12.22264287109375,21.77420390625L12.54054287109375,21.68450390625ZM11.50702287109375,16.89870390625Q9.94744287109375,16.93640390625,8.585712871093751,17.200903906249998L8.31111287109375,17.254203906249998L8.39481287109375,17.521103906249998Q8.639442871093749,18.30110390625,8.94924287109375,18.97040390625Q10.00165287109375,21.24400390625,11.44136287109375,21.67510390625L11.76304287109375,21.77140390625L11.76304287109375,16.89250390625L11.50702287109375,16.89870390625ZM15.05564287109375,17.63800390625Q14.85404287109375,18.23590390625,14.61124287109375,18.76040390625Q13.76844287109375,20.58120390625,12.72264287109375,21.08270390625L12.72264287109375,17.40420390625Q13.95304287109375,17.44620390625,15.05564287109375,17.63800390625ZM8.95942287109375,17.64040390625Q9.16071287109375,18.23700390625,9.402992871093751,18.76040390625Q10.23307287109375,20.55370390625,11.26306287109375,21.06810390625L11.26306287109375,17.40640390625Q10.04650287109375,17.45120390625,8.95942287109375,17.64040390625ZM14.56404287109375,21.41930390625Q17.095742871093748,20.73060390625,18.94974287109375,18.84870390625L19.16884287109375,18.62630390625L18.90404287109375,18.46110390625Q17.87864287109375,17.82160390625,16.386842871093748,17.41920390625L16.153742871093748,17.356303906249998L16.08274287109375,17.58700390625Q15.40934287109375,19.77610390625,14.31154287109375,21.01210390625L13.75404287109375,21.63970390625L14.56404287109375,21.41930390625ZM5.07013287109375,18.85450390625Q6.92251287109375,20.73170390625,9.450192871093751,21.41930390625L10.26017287109375,21.63970390625L9.70273287109375,21.01210390625Q8.605602871093751,19.77690390625,7.93230287109375,17.58960390625L7.86127287109375,17.35890390625L7.62819287109375,17.42180390625Q6.13129287109375,17.82610390625,5.11468287109375,18.46750390625L4.85185287109375,18.63330390625L5.07013287109375,18.85450390625ZM18.36414287109375,18.72330390625Q16.97054287109375,20.04880390625,15.19234287109375,20.69610390625Q15.96084287109375,19.58550390625,16.487142871093752,17.96640390625Q17.56464287109375,18.27890390625,18.36414287109375,18.72330390625ZM8.82185287109375,20.69610390625Q8.05409287109375,19.58640390625,7.52797287109375,17.96910390625Q6.44829287109375,18.28270390625,5.65479287109375,18.72780390625Q7.04675287109375,20.04990390625,8.82185287109375,20.69610390625Z" fill-rule="evenodd" fill="#FFFFFF" fill-opacity="1"/></g></g></svg>