<svg xmlns="http://www.w3.org/2000/svg" xmlns:xlink="http://www.w3.org/1999/xlink" fill="none" version="1.1" width="30.000001907348633" height="30.000001907348633" viewBox="0 0 30.000001907348633 30.000001907348633"><defs><clipPath id="master_svg0_1432_04230"><rect x="0" y="0" width="30.000001907348633" height="30.000001907348633" rx="0"/></clipPath></defs><g clip-path="url(#master_svg0_1432_04230)"><g><g><g><path d="M17.477847216796874,28.047126391601562C9.223197216796875,28.043926391601563,3.024367216796875,20.50632639160156,4.615167216796875,12.406426391601563C6.205967216796875,4.306456391601563,14.795147216796876,-0.32687260839843746,22.437847216796875,2.7921363916015625C20.139447216796874,1.3373853916015626,17.474347216796875,0.5671181516015625,14.754247216796875,0.5714263916015625C6.802857216796875,0.5714263916015625,0.357147216796875,7.0171363916015626,0.357147216796875,14.968526391601563C0.357147216796875,22.920026391601564,6.802857216796875,29.365726391601562,14.754247216796875,29.365726391601562C17.599047216796876,29.369926391601563,20.380647216796874,28.527526391601562,22.745047216796873,26.945726391601564C21.084647216796874,27.67412639160156,19.290947216796877,28.04922639160156,17.477847216796874,28.047126391601562Z" fill="#D56819" fill-opacity="1"/></g><g><path d="M18.05,3.4164363316146873C15.71019,3.4135674023046874,13.42518,4.124488612304687,11.5,5.454297612304687C18.42675,2.2913076123046876,26.303800000000003,7.353837612304687,26.303800000000003,14.968627612304687C26.303800000000003,22.583327612304686,18.42675,27.645827612304686,11.5,24.48282761230469C17.913719999999998,28.899727612304687,26.7713,25.834727612304686,29.0834,18.398427612304687C31.3965,10.963537612304687,25.8385,3.4164366040946876,18.05,3.4164363316146873Z" fill="#D56819" fill-opacity="1"/></g><g><path d="M21.777156298828125,9.624997725585937C21.480256298828124,9.323020935585937,21.023956298828125,9.243991325585938,20.642856298828125,9.428569225585937Q16.857146298828127,11.254278725585937,15.946426298828126,11.701428725585938C15.895146298828125,11.726878725585937,15.862716298828126,11.779178725585938,15.862716298828126,11.836428725585938C15.862716298828126,11.893668725585938,15.895146298828125,11.945978725585938,15.946426298828126,11.971428725585938L17.026426298828127,12.499998725585938C17.114836298828124,12.542888725585938,17.218026298828125,12.542888725585938,17.306426298828125,12.499998725585938L20.341456298828128,11.039998725585937L18.802156298828123,14.092138725585936L9.318566298828125,9.462140725585938C8.930566298828126,9.273050625585938,8.464696298828125,9.357972325585937,8.168367298828125,9.671809725585938C7.872038698828125,9.985646725585937,7.813970298828125,10.455618725585937,8.024998298828125,10.832138725585938L14.434286298828125,22.26071872558594C14.607826298828126,22.571418725585936,14.935556298828125,22.764218725585938,15.291426298828124,22.76501872558594L15.313566298828125,22.76501872558594C15.677606298828124,22.756918725585937,16.007376298828127,22.548318725585936,16.170716298828125,22.222818725585938L21.950756298828125,10.759998725585938C22.141956298828127,10.383538725585938,22.072156298828126,9.927108725585937,21.777156298828125,9.624997725585937ZM14.652146298828125,19.96211872558594L9.687856298828125,11.104998725585938L14.652146298828125,13.529998725585937L14.652146298828125,19.96211872558594ZM15.967856298828124,19.714318725585937L15.967856298828124,14.174998725585937L18.209956298828125,15.269998725585937L15.967856298828124,19.714318725585937Z" fill="#D56819" fill-opacity="1"/></g></g></g></g></svg>