<svg xmlns="http://www.w3.org/2000/svg" xmlns:xlink="http://www.w3.org/1999/xlink" fill="none" version="1.1" width="22" height="22" viewBox="0 0 22 22"><defs><clipPath id="master_svg0_48_2901"><rect x="0" y="0" width="22" height="22" rx="0"/></clipPath></defs><g clip-path="url(#master_svg0_48_2901)"><g><path d="M5.978492734375,13.815941015625C5.7804927343750006,13.815941015625,5.587992734375,13.727941015625,5.455992734375,13.562941015625C5.230492734375,13.276941015625,5.279992734375,12.858941015625,5.571492734375,12.638941015625C5.637492734375,12.589441015625,7.215992734375,11.368441015625,9.118992734375,10.840491015625C10.097992734375,10.570991015625,11.186992734375,10.642491015625,12.330992734375,10.719491015625C13.348452734375,10.785491015625,14.398952734375,10.856991015625,15.322952734375,10.658991015625C16.175452734375,10.477491015625,17.616452734375002,9.690991015625,18.441452734374998,9.201491015624999L16.697952734375,2.870991015625C15.839952734375,3.338491015625,14.437452734375,4.069991015625,13.535452734375,4.317491015625C12.743492734375,4.537491015625,11.670992734375,4.471491015625,10.537992734374999,4.399991015625C9.371992734374999,4.328491015625,8.167492734375,4.251491015625,7.342492734375,4.4934910156250005C5.747492734375,4.960991015625,4.289992734375,6.044491015625,4.273492734375,6.055491015625C3.9819887343750002,6.275491015625,3.569488734375,6.214991015625,3.349488734375,5.923491015625C3.129488934375,5.631991015625,3.189988934375,5.219491015625,3.475988734375,4.999491015625C3.541988734375,4.949991015625001,5.136992734375,3.756491015625,6.968492734374999,3.222991015625C8.018992734375,2.914991015625,9.338992734375001,2.997491015625,10.614992734375,3.079991015625C11.588492734375,3.140491015625,12.600492734375,3.200991015625,13.183492734375,3.0414910156249997C14.162452734375,2.771991015625,16.109452734374997,1.699491015625,16.774952734375,1.308991015625C16.950952734375,1.204491015625,17.165452734375002,1.187990915625,17.357952734375,1.264991015625C17.550452734375,1.3419910156250001,17.693452734375,1.501491015625,17.742952734375002,1.699491015625L19.849452734375,9.322491015625C19.926452734375,9.602991015625,19.810952734375,9.899991015625,19.568952734375,10.053991015625C19.469952734375,10.119991015625,17.066452734374998,11.632541015625,15.603452734375,11.940541015625C14.497952734375,12.177041015625,13.353952734375,12.100041015625,12.242992734375,12.023041015625C11.208982734374999,11.951541015625,10.229982734375,11.891041015625,9.465492734375001,12.100041015625C7.815492734375,12.556541015625,6.396482734375001,13.651041015625,6.379992734375,13.662041015625C6.2644927343750005,13.771941015625,6.121492734375,13.816041015625,5.978492734375,13.815941015625Z" fill="#D56819" fill-opacity="1"/></g><g><path d="M7.48547125,19.684434375C7.19397125,19.684434375,6.92997125,19.491934375,6.84747125,19.200434375L2.76097395,4.196427375C2.66747385,3.844427375,2.87097425,3.481427375,3.22297425,3.387927075C3.57497425,3.294426975,3.93797125,3.497927375,4.03147125,3.849927375L8.12347125,18.853934375C8.21697125,19.205934375,8.01347125,19.568934375,7.66147125,19.662434375C7.60097125,19.678934375,7.54597125,19.684434375,7.48547125,19.684434375Z" fill="#D56819" fill-opacity="1"/></g><g><path d="M19.44797705078125,20.267509765625L2.98647705078125,20.267509765625C2.62347705078125,20.267509765625,2.32647705078125,19.970509765625,2.32647705078125,19.607509765625C2.32647705078125,19.244509765625,2.62347705078125,18.947509765625,2.98647705078125,18.947509765625L19.45347705078125,18.947509765625C19.81647705078125,18.947509765625,20.11347705078125,19.244509765625,20.11347705078125,19.607509765625C20.11347705078125,19.970509765625,19.81647705078125,20.267509765625,19.44797705078125,20.267509765625Z" fill="#D56819" fill-opacity="1"/></g></g></svg>