<svg xmlns="http://www.w3.org/2000/svg" xmlns:xlink="http://www.w3.org/1999/xlink" fill="none" version="1.1" width="24" height="24" viewBox="0 0 24 24"><defs><clipPath id="master_svg0_608_16278"><rect x="0" y="0" width="24" height="24" rx="0"/></clipPath></defs><g clip-path="url(#master_svg0_608_16278)"><g><path d="M12,1C9.82441,0.9999999999999993,7.69767,1.645139,5.88873,2.8538300000000003C4.07979,4.062530000000001,2.66989,5.78049,1.8373300000000001,7.79048C1.00476632,9.80047,0.786929,12.0122,1.211367,14.146C1.635804,16.2798,2.6834499999999997,18.2398,4.221830000000001,19.7782C5.76021,21.3166,7.72022,22.3642,9.85401,22.7886C11.9878,23.2131,14.1995,22.9952,16.2095,22.1627C18.2195,21.3301,19.9375,19.9202,21.1462,18.1113C22.3549,16.302300000000002,23,14.1756,23,12C23,9.08262,21.8411,6.28473,19.7782,4.221830000000001C17.7153,2.15893,14.9174,1.000000000000001,12,1C12,1,12,1,12,1C12,1,12,1,12,1ZM12,21C10.21997,21,8.47992,20.4722,6.99987,19.4832C5.51983,18.4943,4.36628,17.0887,3.68509,15.4442C3.0039,13.7996,2.8256699999999997,11.99,3.17294,10.24419C3.5202,8.49836,4.37737,6.89471,5.63604,5.63604C6.89472,4.37737,8.49836,3.5202,10.24419,3.17293C11.99,2.8256699999999997,13.7996,3.0039,15.4442,3.68508C17.0887,4.36627,18.4943,5.51983,19.4832,6.99987C20.4722,8.47991,21,10.21997,21,12C21,14.3869,20.0518,16.676099999999998,18.364,18.364C16.676099999999998,20.0518,14.387,21,12,21C12,21,12,21,12,21C12,21,12,21,12,21ZM14.83,6.45C14.83,6.45,12,10.7,12,10.7C12,10.7,9.17,6.45,9.17,6.45C9.09736,6.34007,9.0037,6.24559,8.89441,6.17198C8.785129999999999,6.09836,8.662379999999999,6.04707,8.53321,6.02105C8.40404,5.99503,8.271,5.9948,8.14174,6.02036C8.01248,6.04592,7.88955,6.09677,7.78,6.17C7.56079,6.31662,7.40838,6.5439,7.35593,6.80236C7.30349,7.06082,7.35527,7.32954,7.5,7.55C7.5,7.55,9.61,10.72,9.61,10.72C9.61,10.72,9,10.72,9,10.72C8.73479,10.72,8.48043,10.82536,8.2929,11.0129C8.105360000000001,11.2004,8,11.4548,8,11.72C8,11.9852,8.105360000000001,12.2396,8.2929,12.4271C8.48043,12.6146,8.73479,12.72,9,12.72C9,12.72,11,12.72,11,12.72C11,12.72,11.05,12.8,11.05,12.8C11.05,12.8,11.05,13.72,11.05,13.72C11.05,13.72,9,13.72,9,13.72C8.73479,13.72,8.48043,13.8254,8.2929,14.0129C8.105360000000001,14.2004,8,14.4548,8,14.72C8,14.9852,8.105360000000001,15.2396,8.2929,15.4271C8.48043,15.6146,8.73479,15.72,9,15.72C9,15.72,11,15.72,11,15.72C11,15.72,11,18,11,18C11,18.2652,11.1054,18.5196,11.2929,18.7071C11.4804,18.8946,11.7348,19,12,19C12.2652,19,12.5196,18.8946,12.7071,18.7071C12.8946,18.5196,13,18.2652,13,18C13,18,13,15.72,13,15.72C13,15.72,15,15.72,15,15.72C15.2652,15.72,15.5196,15.6146,15.7071,15.4271C15.8946,15.2396,16,14.9852,16,14.72C16,14.4548,15.8946,14.2004,15.7071,14.0129C15.5196,13.8254,15.2652,13.72,15,13.72C15,13.72,13,13.72,13,13.72C13,13.72,13,12.8,13,12.8C13,12.8,13.05,12.72,13.05,12.72C13.05,12.72,15,12.72,15,12.72C15.2652,12.72,15.5196,12.6146,15.7071,12.4271C15.8946,12.2396,16,11.9852,16,11.72C16,11.4548,15.8946,11.2004,15.7071,11.0129C15.5196,10.82536,15.2652,10.72,15,10.72C15,10.72,14.39,10.72,14.39,10.72C14.39,10.72,16.5,7.55,16.5,7.55C16.6447,7.32954,16.6965,7.06082,16.6441,6.80236C16.5916,6.5439,16.4392,6.31662,16.22,6.17C16.110500000000002,6.09677,15.9875,6.04592,15.8583,6.02036C15.729,5.9948,15.596,5.99503,15.4668,6.02105C15.3376,6.04707,15.2149,6.09836,15.1056,6.17198C14.9963,6.24559,14.9027,6.34007,14.83,6.45C14.83,6.45,14.83,6.45,14.83,6.45Z" fill="#D56819" fill-opacity="1"/></g></g></svg>