<svg xmlns="http://www.w3.org/2000/svg" xmlns:xlink="http://www.w3.org/1999/xlink" fill="none" version="1.1" width="22" height="22" viewBox="0 0 22 22"><defs><clipPath id="master_svg0_1_06149"><rect x="0" y="0" width="22" height="22" rx="0"/></clipPath></defs><g clip-path="url(#master_svg0_1_06149)"><g><path d="M20.4995193359375,20.63173515625C20.3334193359375,20.63033515625,20.1748193359375,20.56213515625,20.0595193359375,20.44253515625L17.7605193359375,18.07313515625C17.5686193359375,17.82423515625,17.5931193359375,17.47113515625,17.8176193359375,17.25113515625C18.0420193359375,17.031135156250002,18.3956193359375,17.01383515625,18.6405193359375,17.21073515625L20.9461193359375,19.58013515625C21.1185193359375,19.75833515625,21.1681193359375,20.02213515625,21.0724193359375,20.25083515625C20.9767193359375,20.47953515625,20.7541193359375,20.62933515625,20.5061193359375,20.63173515625L20.4995193359375,20.63173515625ZM1.4981593359374998,20.63173515625C1.2473833359375,20.63193515625,1.0211663359375,20.48103515625,0.9248843359375,20.24953515625C0.8286027359375,20.01793515625,0.8811939159375,19.75123515625,1.0581593359375,19.57353515625L3.7399593359375,16.893935156250002C3.9829293359375,16.65073515625,4.3770893359375,16.65063515625,4.6201793359375,16.893735156250003C4.863259335937499,17.13683515625,4.8631693359375,17.53093515625,4.6199593359375,17.77393515625L1.9381593359375,20.46013515625C1.8205273359375,20.57273515625,1.6632003359375,20.63443515625,1.5003603359375,20.63173515625L1.4981593359374998,20.63173515625ZM14.2339193359375,19.43053515625C13.9832193359375,19.43073515625,13.7569193359375,19.27983515625,13.6607193359375,19.04833515625C13.5644193359375,18.81673515625,13.6170193359375,18.55003515625,13.7939193359375,18.37233515625L19.0145193359375,13.15613515625C19.2576193359375,12.91343515625,19.6513193359375,12.91363515625,19.8942193359375,13.15643515625C20.1371193359375,13.39933515625,20.1372193359375,13.79303515625,19.8945193359375,14.03613515625L14.6739193359375,19.25013515625C14.5577193359375,19.36603515625,14.4002193359375,19.43093515625,14.2361193359375,19.43053515625L14.2339193359375,19.43053515625ZM8.2279593359375,19.19733515625C8.062789335937499,19.19773515625,7.9043393359375,19.13193515625,7.7879593359375,19.01473515625L2.5739593359375,13.79853515625C2.3309593359375,13.55553515625,2.3309593359375,13.16153515625,2.5739593359375,12.91853515625C2.8169693359375003,12.67553515625,3.2109593359375,12.67553515625,3.4539593359375,12.91853515625L8.6679593359375,18.13913515625C8.8449293359375,18.31683515625,8.8975193359375,18.58353515625,8.801239335937499,18.81513515625C8.7049493359375,19.04663515625,8.478739335937501,19.19753515625,8.2279593359375,19.19733515625ZM14.5859193359375,16.50013515625C14.4269193359375,16.49993515625,14.2740193359375,16.438535156249998,14.1591193359375,16.32853515625L11.2199193359375,13.53673515625L8.2895593359375,16.12173515625C8.0442593359375,16.33713515625,7.6739693359375,16.32563515625,7.4425593359375,16.09533515625L5.4999593359375,14.14833515625C5.2646493359375,13.90733515625,5.2646493359375,13.52253515625,5.4999593359375,13.28153515625L8.0915593359375,10.56013515625L3.9599593359375,6.60013515625C3.8809193359375,6.52483515625,3.8232393359375,6.42995515625,3.7927593359375,6.32513515625L2.5827593359375003,2.16493515625C2.5192193359374997,1.94330915625,2.5838193359375,1.7047251562499999,2.7504993359375,1.54543415625C2.9171793359375,1.38614215625,3.1584393359375,1.33241825625,3.3769593359375,1.40593555625L7.3875593359375,2.76773515625C7.4901193359375,2.80218515625,7.5818893359375,2.86286515625,7.6537593359375,2.94373515625L11.3519193359375,7.12373515625L15.2173193359375,3.08013515625C15.2927193359375,3.00118515625,15.3876193359375,2.94350515625,15.4923193359375,2.91293515625L19.6591193359375,1.70733515625C19.8808193359375,1.64379415625,20.1193193359375,1.70839215625,20.2786193359375,1.87507115625C20.4379193359375,2.04175115625,20.4917193359375,2.28301515625,20.4181193359375,2.50153515625L19.0563193359375,6.51213515625C19.0218193359375,6.61465515625,18.9611193359375,6.70639515625,18.8803193359375,6.77833515625L14.4803193359375,10.67013515625L17.0081193359375,13.53013515625C17.2250193359375,13.77573515625,17.2134193359375,14.14763515625,16.9817193359375,14.37933515625L15.0347193359375,16.32633515625C14.9148193359375,16.442535156250003,14.7529193359375,16.505235156250002,14.5859193359375,16.50013515625ZM12.1527193359375,12.71393515625L14.5727193359375,15.02613515625L15.6727193359375,13.92613515625L13.5299193359375,11.50613515625L12.1527193359375,12.71393515625ZM6.7979593359375,13.70173515625L7.8979593359375,14.80173515625L17.9365193359375,5.95773515625L18.8649193359375,3.2297351562500003L16.0049193359375,4.05913515625L6.7979593359375,13.70173515625ZM4.9323593359375,5.82573515625L8.9473593359375,9.65373515625L10.4873593359375,8.03453515625L6.8331593359375,3.88753515625L4.1051593359375005,2.96133515625L4.9323593359375,5.82573515625Z" fill="#D56819" fill-opacity="1"/></g></g></svg>