<svg width="23" height="24" viewBox="0 0 23 24" fill="none" xmlns="http://www.w3.org/2000/svg">
<path d="M19.4167 8.27778V4.58333C19.4167 3.70888 18.7078 3 17.8333 3H3.58333C2.70888 3 2 3.70888 2 4.58333V20.4167C2 21.2911 2.70888 22 3.58333 22H17.8333C18.7078 22 19.4167 21.2911 19.4167 20.4167V16.7222" stroke="#7170F2" stroke-width="1.67647" stroke-linejoin="round"/>
<path d="M19.4164 8.27747H12.0275C11.1531 8.27747 10.4442 8.98635 10.4442 9.8608V15.1386C10.4442 16.013 11.1531 16.7219 12.0275 16.7219H19.4164C20.2909 16.7219 20.9998 16.013 20.9998 15.1386V9.8608C20.9998 8.98635 20.2909 8.27747 19.4164 8.27747Z" stroke="#7170F2" stroke-width="1.67647" stroke-linejoin="round"/>
<path d="M13.6112 12.4991C13.6112 11.9162 14.0838 11.4436 14.6667 11.4436C15.2497 11.4436 15.7223 11.9162 15.7223 12.4991C15.7223 13.0821 15.2497 13.5547 14.6667 13.5547C14.0838 13.5547 13.6112 13.0821 13.6112 12.4991Z" fill="#7170F2"/>
</svg>
