<svg xmlns="http://www.w3.org/2000/svg" xmlns:xlink="http://www.w3.org/1999/xlink" fill="none" version="1.1" width="24" height="24" viewBox="0 0 24 24"><defs><clipPath id="master_svg0_1_05485"><rect x="0" y="0" width="24" height="24" rx="0"/></clipPath></defs><g clip-path="url(#master_svg0_1_05485)"><g style="opacity:0.30000001192092896;"><path d="M1.864845,7.718Q1,9.76272,1,12Q1,14.2373,1.864845,16.282Q2.699865,18.2562,4.22182,19.7782Q5.74378,21.3001,7.718,22.1352Q9.76272,23,12,23Q14.2373,23,16.282,22.1352Q18.2562,21.3001,19.7782,19.7782Q21.3001,18.2562,22.1352,16.282Q23,14.2373,23,12Q23,9.76272,22.1352,7.718Q21.3001,5.74378,19.7782,4.22182Q18.2562,2.699866,16.282,1.864845Q14.2373,1,12,1Q9.76272,1,7.718,1.864845Q5.74378,2.699866,4.22182,4.22182Q2.6998670000000002,5.74378,1.864845,7.718ZM3.70685,15.5029Q3,13.8317,3,12Q3,10.16829,3.70685,8.4971Q4.38992,6.88216,5.6360399999999995,5.6360399999999995Q6.88216,4.38991,8.4971,3.70685Q10.16829,3,12,3Q13.8317,3,15.5029,3.70685Q17.117800000000003,4.38991,18.364,5.6360399999999995Q19.6101,6.88217,20.2931,8.4971Q21,10.16829,21,12Q21,13.8317,20.2931,15.5029Q19.6101,17.117800000000003,18.364,18.364Q17.117800000000003,19.6101,15.5029,20.2931Q13.8317,21,12,21Q10.1683,21,8.4971,20.2931Q6.88216,19.6101,5.6360399999999995,18.364Q4.38991,17.117800000000003,3.70685,15.5029Z" fill-rule="evenodd" fill="#FFFFFF" fill-opacity="1"/></g><g><path d="M15.535210859374999,9.87886871875L15.535590859374999,9.87849371875Q15.676240859375,9.73784171875,15.752360859374999,9.55406971875Q15.828480859375,9.37029871875,15.828480859375,9.17138671875Q15.828480859375,8.97247471875,15.752360859374999,8.78870371875Q15.676240859375,8.60493171875,15.535590859374999,8.46427971875L15.535010859375,8.46370771875Q15.531010859375,8.45970671875,15.526950859374999,8.45575171875L15.526370859375,8.45518671875Q15.386320859375001,8.31871271875,15.205180859375,8.24504971875Q15.024030859375,8.17138671875,14.828480859375,8.17138671875Q14.629570859375,8.17138671875,14.445800859375,8.24750671875Q14.262030859374999,8.32362771875,14.121370859375,8.46427971875L14.121000859375,8.46465471875L8.464898859375,14.12075671875L8.464523859375,14.12112671875Q8.323871859375,14.261786718749999,8.247751859375,14.44555671875Q8.171630859375,14.62932671875,8.171630859375,14.82823671875Q8.171630859375,14.85226671875,8.172784859375,14.876276718749999Q8.181741859375,15.06250671875,8.257211859375,15.23300671875Q8.332681859375,15.403496718749999,8.464523859375,15.535346718749999Q8.605175859375,15.67599671875,8.788947859375,15.752116718749999Q8.972718859375,15.82823671875,9.171630859375,15.82823671875Q9.370542859375,15.82823671875,9.554313859375,15.752116718749999Q9.738085859375,15.67599671875,9.878737859375,15.535346718749999L9.879112859375,15.534966718749999L15.535210859374999,9.87886871875Z" fill-rule="evenodd" fill="#FFFFFF" fill-opacity="1"/></g><g><path d="M14.120860859375,15.53482671875L14.121370859375,15.535346718749999Q14.262030859374999,15.67599671875,14.445800859375,15.752116718749999Q14.629570859375,15.82823671875,14.828480859375,15.82823671875Q15.027390859375,15.82823671875,15.211160859375,15.752116718749999Q15.394930859375,15.67599671875,15.535590859374999,15.535346718749999Q15.676240859375,15.39468671875,15.752360859374999,15.21091671875Q15.828480859375,15.02714671875,15.828480859375,14.82823671875Q15.828480859375,14.62932671875,15.752360859374999,14.44555671875Q15.676240859375,14.261786718749999,15.535590859374999,14.12112671875L15.535070859375,14.12061671875L9.878856859375,8.464398718750001L9.878737859375,8.46427971875Q9.738085859375,8.32362771875,9.554313859375,8.24750671875Q9.370542859375,8.17138671875,9.171630859375,8.17138671875Q8.972718859375,8.17138671875,8.788947859375,8.24750671875Q8.605175859375,8.32362771875,8.464523859375,8.46427971875Q8.323871859375,8.60493171875,8.247750859375,8.78870371875Q8.171630859375,8.97247471875,8.171630859375,9.17138671875Q8.171630859375,9.37029871875,8.247750859375,9.55406971875Q8.323871859375,9.73784171875,8.464523859375,9.87849371875L8.464642859375001,9.87861271875L14.120860859375,15.53482671875Z" fill-rule="evenodd" fill="#FFFFFF" fill-opacity="1"/></g></g></svg>