<svg xmlns="http://www.w3.org/2000/svg" xmlns:xlink="http://www.w3.org/1999/xlink" fill="none" version="1.1" width="10.000005722045898" height="6.000001907348633" viewBox="0 0 10.000005722045898 6.000001907348633"><g><path d="M1.29526,0.235034C1.01085,-0.066104,0.536173,-0.079667,0.235034,0.204742C-0.066104,0.489151,-0.079667,0.963831,0.204742,1.26497C0.204742,1.26497,1.29526,0.235034,1.29526,0.235034C1.29526,0.235034,1.29526,0.235034,1.29526,0.235034ZM5,5.25C5,5.25,4.45474,5.76497,4.45474,5.76497C4.59642,5.91498,4.79365,6,5,6C5.20635,6,5.40358,5.91498,5.54526,5.76497C5.54526,5.76497,5,5.25,5,5.25C5,5.25,5,5.25,5,5.25ZM9.79526,1.26497C10.0797,0.963831,10.0661,0.489151,9.76497,0.204742C9.46383,-0.079667,8.98915,-0.066104,8.70474,0.235034C8.70474,0.235034,9.79526,1.26497,9.79526,1.26497C9.79526,1.26497,9.79526,1.26497,9.79526,1.26497ZM0.204742,1.26497C0.204742,1.26497,4.45474,5.76497,4.45474,5.76497C4.45474,5.76497,5.54526,4.73503,5.54526,4.73503C5.54526,4.73503,1.29526,0.235034,1.29526,0.235034C1.29526,0.235034,0.204742,1.26497,0.204742,1.26497C0.204742,1.26497,0.204742,1.26497,0.204742,1.26497ZM5.54526,5.76497C5.54526,5.76497,9.79526,1.26497,9.79526,1.26497C9.79526,1.26497,8.70474,0.235034,8.70474,0.235034C8.70474,0.235034,4.45474,4.73503,4.45474,4.73503C4.45474,4.73503,5.54526,5.76497,5.54526,5.76497C5.54526,5.76497,5.54526,5.76497,5.54526,5.76497Z" fill="#D56819" fill-opacity="1"/></g></svg>