<svg width="28" height="28" viewBox="0 0 28 28" fill="none" xmlns="http://www.w3.org/2000/svg">
<path d="M14.9649 3.05148C13.65 2.91679 12.3075 3.04648 11.0448 3.43952C9.24637 3.99488 7.62002 5.08692 6.41933 6.53595C5.19418 8.00287 4.41547 9.83678 4.21606 11.738C4.04111 13.361 4.27157 15.0289 4.89927 16.5368C4.53807 16.5171 4.16949 16.5997 3.85959 16.7894C3.40262 17.0633 3.08009 17.5518 3.01643 18.0816C2.98801 18.3263 3.00353 18.5731 2.99959 18.8188V23.6334C3.00406 23.8972 2.98459 24.1635 3.02669 24.4255C3.10745 24.9185 3.40999 25.3686 3.83433 25.6317C4.25157 25.8966 4.78194 25.9706 5.25679 25.8364C5.64404 25.729 5.98973 25.4841 6.22361 25.1579C9.12851 25.1584 12.0334 25.1579 14.9383 25.1582C15.359 25.1571 15.7796 25.1634 16.2 25.1471C17.2552 25.1098 18.3065 24.9632 19.3304 24.7059C20.3777 24.4389 21.4016 24.0561 22.3342 23.506C23.0577 23.0749 23.7306 22.534 24.2258 21.8465C24.5638 21.3754 24.8064 20.83 24.8927 20.2547C24.9497 19.8553 24.9418 19.4449 24.8619 19.0492C24.769 18.602 24.5501 18.1687 24.19 17.8783C23.7493 17.5121 23.1529 17.39 22.592 17.425C23.0786 16.5183 23.4185 15.5402 23.5991 14.5272C23.9256 12.6975 23.7262 10.7747 23.0132 9.05676C22.3419 7.42489 21.2159 5.98533 19.8 4.93275C18.397 3.88518 16.7075 3.2259 14.9649 3.05148ZM17.6104 5.04088C19.3443 5.85484 20.7855 7.26993 21.6358 8.98599C22.4289 10.5723 22.7025 12.4089 22.4195 14.1589C22.2442 15.2604 21.8488 16.3264 21.2645 17.2766C21.1804 17.4063 21.1567 17.5655 21.1777 17.717C20.8436 17.8475 20.5077 17.974 20.1641 18.0787C19.0379 18.4357 17.8877 18.7183 16.723 18.9174C16.586 18.3345 16.2192 17.813 15.7218 17.4805C15.2651 17.1735 14.7234 16.997 14.1749 16.9622C12.7648 16.846 11.3442 16.8091 9.93326 16.9304C8.88622 17.0275 7.83417 17.2037 6.85315 17.5947C6.21492 16.6579 5.77006 15.5906 5.54855 14.4791C5.19234 12.7022 5.41385 10.8133 6.18546 9.17251C6.99021 7.44199 8.39163 5.99795 10.0969 5.14085C11.0148 4.67467 12.0192 4.38003 13.0428 4.27216C14.5974 4.10458 16.1974 4.37003 17.6104 5.04088ZM4.92847 17.7809C5.15998 17.8467 5.33335 18.0751 5.32783 18.3168C5.32756 20.2557 5.32809 22.1946 5.32756 24.1335C5.32625 24.3479 5.18708 24.5528 4.98845 24.6341C4.79115 24.723 4.5457 24.6717 4.39337 24.5202C4.27367 24.4073 4.21895 24.2408 4.22264 24.079C4.22316 22.1675 4.22264 20.256 4.2229 18.3445C4.22211 18.2024 4.26578 18.0574 4.36154 17.9504C4.49729 17.7917 4.72748 17.7186 4.92847 17.7809ZM14.0973 18.1835C14.3359 18.1977 14.5703 18.2597 14.7881 18.3568C15.1072 18.4968 15.3811 18.7535 15.4987 19.0866C14.5663 19.1897 13.6237 19.2226 12.6887 19.1389C12.5611 19.1287 12.4304 19.1024 12.3041 19.1371C12.1618 19.1721 12.0326 19.2594 11.95 19.381C11.8151 19.5717 11.8043 19.8419 11.9256 20.0421C12.0237 20.2147 12.2123 20.3291 12.4099 20.342C13.6285 20.4678 14.8594 20.407 16.0724 20.2518C17.3813 20.0813 18.674 19.7966 19.9407 19.4278C20.3888 19.2947 20.8357 19.1563 21.2743 18.9943C21.5955 18.8569 21.9312 18.7509 22.2756 18.6891C22.6041 18.6333 22.9588 18.6028 23.2726 18.7378C23.4915 18.8317 23.6109 19.0579 23.6586 19.2805C23.7456 19.6933 23.7143 20.1323 23.561 20.5262C23.4068 20.9242 23.1492 21.2746 22.852 21.5777C22.511 21.921 22.1174 22.2088 21.702 22.4556C20.8752 22.9438 19.9657 23.2787 19.0376 23.5166C18.0745 23.7596 17.085 23.8954 16.0927 23.9272C15.611 23.9414 15.1291 23.9322 14.6474 23.9349C11.9487 23.9351 9.25032 23.9343 6.55166 23.9351C6.55061 22.3369 6.55114 20.7385 6.55166 19.1403C6.82921 18.9314 7.1499 18.7893 7.47349 18.6678C8.29981 18.3689 9.17428 18.2295 10.0464 18.1493C11.3941 18.033 12.7506 18.0724 14.0973 18.1835Z" fill="#A5A9AD"/>
<path d="M14.9649 3.05148C13.65 2.91679 12.3075 3.04648 11.0448 3.43952C9.24637 3.99488 7.62002 5.08692 6.41934 6.53595C5.19418 8.00287 4.41547 9.83678 4.21606 11.738C4.04111 13.361 4.27157 15.0289 4.89927 16.5368C4.53807 16.5171 4.16949 16.5997 3.85959 16.7894C3.40262 17.0633 3.08009 17.5518 3.01643 18.0816C2.98801 18.3263 3.00353 18.5731 2.99959 18.8188V23.6334C3.00406 23.8972 2.98459 24.1635 3.02669 24.4255C3.10745 24.9185 3.40999 25.3686 3.83433 25.6317C4.25157 25.8966 4.78194 25.9706 5.25679 25.8364C5.64405 25.729 5.98973 25.4841 6.22361 25.1579C9.12851 25.1584 12.0334 25.1579 14.9383 25.1582C15.359 25.1571 15.7796 25.1634 16.2 25.1471C17.2552 25.1098 18.3065 24.9632 19.3304 24.7059C20.3777 24.4389 21.4016 24.0561 22.3342 23.506C23.0577 23.0749 23.7306 22.534 24.2258 21.8465C24.5638 21.3754 24.8064 20.83 24.8927 20.2547C24.9497 19.8553 24.9418 19.4449 24.8619 19.0492C24.769 18.602 24.5501 18.1687 24.19 17.8783C23.7493 17.5121 23.1529 17.39 22.592 17.425C23.0786 16.5183 23.4185 15.5402 23.5991 14.5272C23.9256 12.6975 23.7262 10.7747 23.0132 9.05676C22.3419 7.42489 21.2159 5.98533 19.8 4.93275C18.397 3.88518 16.7075 3.2259 14.9649 3.05148M17.6104 5.04088C19.3443 5.85484 20.7855 7.26993 21.6358 8.98599C22.4289 10.5723 22.7025 12.4089 22.4195 14.1589C22.2442 15.2604 21.8488 16.3264 21.2645 17.2766C21.1804 17.4063 21.1567 17.5655 21.1777 17.717C20.8436 17.8475 20.5077 17.974 20.1641 18.0787C19.0379 18.4357 17.8877 18.7183 16.723 18.9174C16.586 18.3345 16.2192 17.813 15.7218 17.4805C15.2651 17.1735 14.7234 16.997 14.1749 16.9622C12.7648 16.846 11.3442 16.8091 9.93326 16.9304C8.88622 17.0275 7.83417 17.2037 6.85315 17.5947C6.21492 16.6579 5.77006 15.5906 5.54855 14.4791C5.19234 12.7022 5.41385 10.8133 6.18546 9.17251C6.99021 7.44199 8.39163 5.99795 10.0969 5.14085C11.0148 4.67467 12.0192 4.38003 13.0428 4.27216C14.5974 4.10458 16.1974 4.37003 17.6104 5.04088M4.92847 17.7809C5.15998 17.8467 5.33335 18.0751 5.32783 18.3168C5.32756 20.2557 5.32809 22.1946 5.32756 24.1335C5.32625 24.3479 5.18708 24.5528 4.98846 24.6341C4.79115 24.723 4.5457 24.6717 4.39337 24.5202C4.27367 24.4073 4.21895 24.2408 4.22264 24.079C4.22316 22.1675 4.22264 20.256 4.2229 18.3445C4.22211 18.2024 4.26578 18.0574 4.36154 17.9504C4.49729 17.7917 4.72748 17.7186 4.92847 17.7809M14.0973 18.1835C14.3359 18.1977 14.5703 18.2597 14.7881 18.3568C15.1072 18.4968 15.3811 18.7535 15.4987 19.0866C14.5663 19.1897 13.6237 19.2226 12.6887 19.1389C12.5611 19.1287 12.4304 19.1024 12.3041 19.1371C12.1618 19.1721 12.0326 19.2594 11.95 19.381C11.8151 19.5717 11.8043 19.8419 11.9256 20.0421C12.0237 20.2147 12.2123 20.3291 12.4099 20.342C13.6285 20.4678 14.8594 20.407 16.0724 20.2518C17.3813 20.0813 18.674 19.7966 19.9407 19.4278C20.3888 19.2947 20.8357 19.1563 21.2743 18.9943C21.5955 18.8569 21.9312 18.7509 22.2756 18.6891C22.6041 18.6333 22.9588 18.6028 23.2726 18.7378C23.4915 18.8317 23.6109 19.0579 23.6586 19.2805C23.7456 19.6933 23.7143 20.1323 23.561 20.5262C23.4068 20.9242 23.1492 21.2746 22.852 21.5777C22.511 21.921 22.1174 22.2088 21.702 22.4556C20.8752 22.9438 19.9657 23.2787 19.0376 23.5166C18.0745 23.7596 17.085 23.8954 16.0927 23.9272C15.611 23.9414 15.129 23.9322 14.6474 23.9349C11.9487 23.9351 9.25032 23.9343 6.55166 23.9351C6.55061 22.3369 6.55114 20.7385 6.55166 19.1403C6.82921 18.9314 7.1499 18.7893 7.47349 18.6678C8.29982 18.3689 9.17429 18.2295 10.0464 18.1493C11.3941 18.033 12.7506 18.0724 14.0973 18.1835V18.1835Z" stroke="#A5A9AD" stroke-width="0.5"/>
<path d="M11.6835 12.4765C11.6702 12.5315 11.6626 12.5637 11.5867 12.5447L10.7219 12.3285L10.5 13.2199L12.095 13.6182L11.7726 14.9135L12.6242 15.126L12.9466 13.8306L13.4757 13.9634L13.1533 15.2568L13.9631 15.4598L14.2875 14.1644L14.8963 14.318C15.3021 14.4185 16.8402 14.4375 17.1721 13.0928C17.2785 12.7333 17.2601 12.3483 17.12 12.0006C16.9798 11.6528 16.7262 11.3626 16.4002 11.1773C16.4002 11.1773 17.3485 10.8871 17.4813 10.0185C17.614 9.14986 17.009 8.74589 16.6582 8.52399C16.3822 8.36457 16.0888 8.23731 15.7839 8.14468L16.1214 6.79052L15.342 6.60087L15.0082 7.94743L14.3823 7.79191L14.7237 6.43966L13.9347 6.25L13.5971 7.60226L11.9471 7.1907L11.746 7.98726L12.6507 8.21295C12.7417 8.23571 12.7304 8.28123 12.7228 8.31158L11.6835 12.4765ZM14.1794 8.59416L15.1409 8.83503C15.3059 8.87675 16.074 9.21434 15.8995 9.89521C15.857 10.0832 15.7484 10.2497 15.5935 10.3646C15.4387 10.4794 15.2478 10.5349 15.0556 10.5211C14.9772 10.5209 14.899 10.5127 14.8223 10.4964L13.7621 10.2309L14.1794 8.59416ZM13.5706 11.0844L15.0726 11.4637C15.1809 11.4929 15.2821 11.5438 15.37 11.6134C15.458 11.683 15.5308 11.7698 15.584 11.8685C15.6373 11.9672 15.6698 12.0757 15.6797 12.1874C15.6896 12.2991 15.6767 12.4117 15.6416 12.5182C15.507 13.0606 14.974 13.1801 14.7104 13.1801C14.6715 13.1813 14.6326 13.1774 14.5947 13.1687L13.1438 12.8084L13.5706 11.0844Z" fill="#A5A9AD"/>
</svg>
