<svg xmlns="http://www.w3.org/2000/svg" xmlns:xlink="http://www.w3.org/1999/xlink" fill="none" version="1.1" width="26" height="26" viewBox="0 0 26 26"><defs><clipPath id="master_svg0_278_00276"><rect x="0" y="0" width="26" height="26" rx="0"/></clipPath></defs><g clip-path="url(#master_svg0_278_00276)"><g><path d="M18.6877078125,3.2093505859375L7.3736378125,3.2093505859375L1.6455078125,10.6437305859375L13.0002078125,24.4155505859375L24.3549078125,10.5421605859375L18.6877078125,3.2093505859375ZM6.9673778125,10.5218505859375L9.0392578125,4.8343505859375L12.8377078125,4.8343505859375L6.9673778125,10.5218505859375ZM19.0533078125,10.5218505859375L13.1830078125,4.8343505859375L16.9611078125,4.8343505859375L19.0533078125,10.5218505859375ZM18.5861078125,11.3343505859375L13.0205078125,21.0437505859375L7.4345678125,11.3343505859375L18.5861078125,11.3343505859375ZM8.3080078125,10.5218505859375L13.0205078125,5.8093505859375L17.7330078125,10.5218505859375L8.3080078125,10.5218505859375ZM6.5205078125,11.3343505859375L11.3955078125,19.9062505859375L4.3267578125,11.3343505859375L6.5205078125,11.3343505859375ZM19.5205078125,11.3343505859375L21.6127078125,11.3343505859375L14.7471078125,19.7030505859375L19.5205078125,11.3343505859375ZM22.2830078125,10.5218505859375L19.9674078125,10.5421605859375L17.7939078125,4.8546605859375L17.8752078125,4.8546605859375L22.2830078125,10.5218505859375ZM8.1658178125,4.8343505859375L8.2470678125,4.8343505859375L6.0736378125,10.5218505859375L3.7783178125,10.5218505859375L8.1658178125,4.8343505859375Z" fill="#F7E1D1" fill-opacity="1"/></g></g></svg>