<svg xmlns="http://www.w3.org/2000/svg" xmlns:xlink="http://www.w3.org/1999/xlink" fill="none" version="1.1" width="30" height="30" viewBox="0 0 30 30"><defs><clipPath id="master_svg0_672_05045"><rect x="0" y="0" width="30" height="30" rx="0"/></clipPath></defs><g clip-path="url(#master_svg0_672_05045)"><g><path d="M16.625,15.275C17.292,14.6977,17.826999999999998,13.9836,18.1936,13.18128C18.5602,12.37895,18.75,11.50714,18.75,10.625C18.75,8.9674,18.0915,7.377689999999999,16.9194,6.20559C15.7474,5.03348,14.1576,4.375000000000001,12.5,4.375C10.8424,4.375000000000001,9.252690000000001,5.03348,8.08059,6.20559C6.90847,7.377689999999999,6.25,8.9674,6.25,10.625C6.24999,11.50714,6.43975,12.37895,6.80641,13.18128C7.17306,13.9836,7.70802,14.6977,8.375,15.275C6.62517,16.0674,5.1405899999999995,17.346899999999998,4.09873,18.9606C3.056869,20.5745,2.50183981,22.4541,2.5,24.375C2.5000000000000018,24.7065,2.631696,25.0245,2.866116,25.2589C3.1005380000000002,25.4932,3.4184799999999997,25.625,3.75,25.625C4.08153,25.625,4.3994599999999995,25.4932,4.63389,25.2589C4.8683,25.0245,5,24.7065,5,24.375C5,22.3859,5.79017,20.4783,7.1967,19.0717C8.60322,17.665100000000002,10.51087,16.875,12.5,16.875C14.4891,16.875,16.3968,17.665100000000002,17.8033,19.0717C19.2099,20.4783,20,22.3859,20,24.375C20,24.7065,20.1318,25.0245,20.3661,25.2589C20.6005,25.4932,20.9185,25.625,21.25,25.625C21.5815,25.625,21.8995,25.4932,22.1339,25.2589C22.3682,25.0245,22.5,24.7065,22.5,24.375C22.4981,22.4541,21.9431,20.5745,20.9012,18.9606C19.8594,17.346899999999998,18.3749,16.0674,16.625,15.275C16.625,15.275,16.625,15.275,16.625,15.275C16.625,15.275,16.625,15.275,16.625,15.275ZM12.5,14.375C11.75833,14.375,11.0333,14.15506,10.41661,13.74301C9.79992,13.33095,9.31927,12.74529,9.03545,12.06006C8.751629999999999,11.374839999999999,8.67736,10.620840000000001,8.82205,9.89341C8.966750000000001,9.16599,9.3239,8.4978,9.84835,7.97335C10.3728,7.4489,11.04099,7.09175,11.76841,6.94705C12.49584,6.80236,13.2498,6.8766300000000005,13.9351,7.16045C14.6203,7.4442699999999995,15.206,7.92493,15.618,8.54161C16.030099999999997,9.1583,16.25,9.88333,16.25,10.625C16.25,11.61956,15.8549,12.57339,15.1516,13.27665C14.4484,13.97991,13.4946,14.375,12.5,14.375C12.5,14.375,12.5,14.375,12.5,14.375ZM27.1375,11.4125C27.0213,11.29534,26.883,11.20235,26.7307,11.13889C26.5784,11.07543,26.415,11.04275,26.25,11.04275C26.085,11.04275,25.9216,11.07543,25.7693,11.13889C25.617,11.20235,25.4787,11.29534,25.3625,11.4125C25.3625,11.4125,22.8625,13.9125,22.8625,13.9125C22.8625,13.9125,22.0875,13.125,22.0875,13.125C21.9712,13.00784,21.833,12.91485,21.6807,12.85139C21.5284,12.78792,21.365,12.75525,21.2,12.75525C21.035,12.75525,20.8716,12.78792,20.7192,12.85139C20.567,12.91485,20.4288,13.00784,20.3125,13.125C20.0796,13.3592,19.949,13.67601,19.949,14.00625C19.949,14.33649,20.0796,14.6533,20.3125,14.8875C20.3125,14.8875,21.9875,16.5625,21.9875,16.5625C22.2218,16.795299999999997,22.5385,16.926000000000002,22.8687,16.926000000000002C23.199,16.926000000000002,23.5157,16.795299999999997,23.75,16.5625C23.75,16.5625,27.0875,13.225,27.0875,13.225C27.2137,13.11165,27.3155,12.9738,27.3868,12.81985C27.458,12.6659,27.4971,12.49905,27.5018,12.32949C27.5065,12.15992,27.4766,11.99117,27.414,11.83352C27.3514,11.675889999999999,27.2572,11.53264,27.1375,11.4125C27.1375,11.4125,27.1375,11.4125,27.1375,11.4125C27.1375,11.4125,27.1375,11.4125,27.1375,11.4125Z" fill="#D56819" fill-opacity="1"/></g></g></svg>