<svg xmlns="http://www.w3.org/2000/svg" xmlns:xlink="http://www.w3.org/1999/xlink" fill="none" version="1.1" width="30" height="30" viewBox="0 0 30 30"><defs><clipPath id="master_svg0_672_04950"><rect x="0" y="0" width="30" height="30" rx="0"/></clipPath></defs><g clip-path="url(#master_svg0_672_04950)"><g><path d="M13.75,11.25C13.75,11.25,18.75,11.25,18.75,11.25C19.0815,11.25,19.3995,11.1183,19.6339,10.88389C19.8682,10.64946,20,10.33153,20,10C20,9.66847,19.8682,9.350539999999999,19.6339,9.116109999999999C19.3995,8.8817,19.0815,8.75,18.75,8.75C18.75,8.75,16.25,8.75,16.25,8.75C16.25,8.75,16.25,7.5,16.25,7.5C16.25,7.16848,16.1182,6.85054,15.8839,6.61611C15.6495,6.3817,15.3315,6.25,15,6.25C14.6685,6.25,14.3505,6.3817,14.1161,6.61611C13.8817,6.85054,13.75,7.16848,13.75,7.5C13.75,7.5,13.75,8.75,13.75,8.75C12.7554,8.75,11.80161,9.14509,11.09835,9.84835C10.39509,10.55161,10,11.50544,10,12.5C10,13.4946,10.39509,14.4484,11.09835,15.1516C11.80161,15.8549,12.7554,16.25,13.75,16.25C13.75,16.25,16.25,16.25,16.25,16.25C16.5815,16.25,16.8995,16.3818,17.1339,16.6161C17.3682,16.8505,17.5,17.1685,17.5,17.5C17.5,17.8315,17.3682,18.1495,17.1339,18.3839C16.8995,18.6182,16.5815,18.75,16.25,18.75C16.25,18.75,11.25,18.75,11.25,18.75C10.91848,18.75,10.60054,18.8818,10.366109999999999,19.1161C10.1317,19.3505,10,19.6685,10,20C10,20.3315,10.1317,20.6495,10.366109999999999,20.8839C10.60054,21.1182,10.91848,21.25,11.25,21.25C11.25,21.25,13.75,21.25,13.75,21.25C13.75,21.25,13.75,22.5,13.75,22.5C13.75,22.8315,13.8817,23.1495,14.1161,23.3839C14.3505,23.6182,14.6685,23.75,15,23.75C15.3315,23.75,15.6495,23.6182,15.8839,23.3839C16.1182,23.1495,16.25,22.8315,16.25,22.5C16.25,22.5,16.25,21.25,16.25,21.25C17.244500000000002,21.25,18.1984,20.8549,18.9016,20.1516C19.6049,19.4484,20,18.494500000000002,20,17.5C20,16.505499999999998,19.6049,15.5516,18.9016,14.8484C18.1984,14.1451,17.244500000000002,13.75,16.25,13.75C16.25,13.75,13.75,13.75,13.75,13.75C13.4185,13.75,13.1005,13.6183,12.8661,13.3839C12.6317,13.1495,12.5,12.8315,12.5,12.5C12.5,12.16848,12.6317,11.85054,12.8661,11.61611C13.1005,11.3817,13.4185,11.25,13.75,11.25C13.75,11.25,13.75,11.25,13.75,11.25C13.75,11.25,13.75,11.25,13.75,11.25ZM23.75,2.5C23.75,2.5,6.25,2.5,6.25,2.5C5.25544,2.500000000000001,4.30161,2.895089,3.59835,3.59835C2.895089,4.30161,2.500000000000001,5.25544,2.5,6.25C2.5,6.25,2.5,23.75,2.5,23.75C2.500000000000001,24.7445,2.895089,25.6984,3.59835,26.4016C4.30161,27.1049,5.25544,27.5,6.25,27.5C6.25,27.5,23.75,27.5,23.75,27.5C24.7445,27.5,25.6984,27.1049,26.4016,26.4016C27.1049,25.6984,27.5,24.7445,27.5,23.75C27.5,23.75,27.5,6.25,27.5,6.25C27.5,5.25544,27.1049,4.30161,26.4016,3.59835C25.6984,2.895089,24.7445,2.5000000000000004,23.75,2.5C23.75,2.5,23.75,2.5,23.75,2.5ZM25,23.75C25,24.0815,24.8682,24.3995,24.6339,24.6339C24.3995,24.8682,24.0815,25,23.75,25C23.75,25,6.25,25,6.25,25C5.918480000000001,25,5.6005400000000005,24.8682,5.36611,24.6339C5.1317,24.3995,5,24.0815,5,23.75C5,23.75,5,6.25,5,6.25C5,5.918480000000001,5.1317,5.6005400000000005,5.36611,5.36611C5.6005400000000005,5.1317,5.918480000000001,5,6.25,5C6.25,5,23.75,5,23.75,5C24.0815,5,24.3995,5.1317,24.6339,5.36611C24.8682,5.6005400000000005,25,5.918480000000001,25,6.25C25,6.25,25,23.75,25,23.75C25,23.75,25,23.75,25,23.75Z" fill="#FFFFFF" fill-opacity="1"/></g></g></svg>