<svg xmlns="http://www.w3.org/2000/svg" xmlns:xlink="http://www.w3.org/1999/xlink" fill="none" version="1.1" width="30" height="30" viewBox="0 0 30 30"><defs><clipPath id="master_svg0_672_05130"><rect x="0" y="0" width="30" height="30" rx="0"/></clipPath></defs><g clip-path="url(#master_svg0_672_05130)"><g><path d="M12.8625,14.6375C12.9787,14.7547,13.117,14.8477,13.2693,14.9111C13.4216,14.9746,13.585,15.0072,13.75,15.0072C13.915,15.0072,14.0784,14.9746,14.2307,14.9111C14.383,14.8477,14.5213,14.7547,14.6375,14.6375C14.6375,14.6375,19.6375,9.6375,19.6375,9.6375C19.754,9.52095,19.8465,9.38259,19.9096,9.23031C19.9726,9.07804,20.0051,8.914819999999999,20.0051,8.75C20.0051,8.585180000000001,19.9726,8.42196,19.9096,8.26969C19.8465,8.11741,19.754,7.97905,19.6375,7.8625C19.521,7.74595,19.3826,7.6535,19.2302,7.59043C19.078,7.52735,18.9149,7.49489,18.75,7.49489C18.5851,7.49489,18.422,7.52735,18.2697,7.59043C18.1174,7.6535,17.979,7.74595,17.8625,7.8625C17.8625,7.8625,13.75,11.9875,13.75,11.9875C13.75,11.9875,12.1375,10.3625,12.1375,10.3625C11.90212,10.12712,11.58288,9.99489,11.25,9.99489C10.91712,9.99489,10.59788,10.12712,10.3625,10.3625C10.12712,10.59788,9.99489,10.91712,9.99489,11.25C9.99489,11.58288,10.12712,11.90212,10.3625,12.1375C10.3625,12.1375,12.8625,14.6375,12.8625,14.6375C12.8625,14.6375,12.8625,14.6375,12.8625,14.6375ZM26.25,17.5C26.25,17.5,25,17.5,25,17.5C25,17.5,25,5,25,5C25,5,26.25,5,26.25,5C26.5815,5,26.8995,4.8683,27.1339,4.63389C27.3682,4.3994599999999995,27.5,4.08153,27.5,3.75C27.5,3.4184799999999997,27.3682,3.1005380000000002,27.1339,2.866116C26.8995,2.631696,26.5815,2.500000000000001,26.25,2.5C26.25,2.5,3.75,2.5,3.75,2.5C3.4184799999999997,2.5000000000000004,3.1005380000000002,2.631696,2.866116,2.866116C2.631696,3.1005380000000002,2.500000000000001,3.4184799999999997,2.5,3.75C2.5000000000000004,4.08153,2.631696,4.3994599999999995,2.866116,4.63389C3.1005380000000002,4.8683,3.4184799999999997,5,3.75,5C3.75,5,5,5,5,5C5,5,5,17.5,5,17.5C5,17.5,3.75,17.5,3.75,17.5C3.4184799999999997,17.5,3.1005380000000002,17.6318,2.866116,17.8661C2.631696,18.1005,2.500000000000001,18.4185,2.5,18.75C2.5000000000000004,19.0815,2.631696,19.3995,2.866116,19.6339C3.1005380000000002,19.8682,3.4184799999999997,20,3.75,20C3.75,20,13.75,20,13.75,20C13.75,20,13.75,21.4375,13.75,21.4375C13.75,21.4375,8.0625,25.1875,8.0625,25.1875C7.82916,25.3319,7.64985,25.5491,7.55221,25.8056C7.45458,26.062,7.44404,26.3435,7.52224,26.6065C7.60044,26.8696,7.76303,27.0996,7.98491,27.2611C8.206800000000001,27.4225,8.475660000000001,27.5065,8.75,27.5C8.995750000000001,27.5027,9.2362,27.4285,9.4375,27.2875C9.4375,27.2875,13.75,24.4375,13.75,24.4375C13.75,24.4375,13.75,26.25,13.75,26.25C13.75,26.5815,13.8817,26.8995,14.1161,27.1339C14.3505,27.3682,14.6685,27.5,15,27.5C15.3315,27.5,15.6495,27.3682,15.8839,27.1339C16.1182,26.8995,16.25,26.5815,16.25,26.25C16.25,26.25,16.25,24.4375,16.25,24.4375C16.25,24.4375,20.5625,27.2875,20.5625,27.2875C20.7638,27.4285,21.0042,27.5027,21.25,27.5C21.517,27.498,21.7765,27.4104,21.9901,27.2502C22.2039,27.09,22.3606,26.8656,22.4375,26.6099C22.5144,26.354,22.5072,26.0804,22.4172,25.8289C22.3274,25.5775,22.1591,25.3615,21.9375,25.2125C21.9375,25.2125,16.25,21.4625,16.25,21.4625C16.25,21.4625,16.25,20,16.25,20C16.25,20,26.25,20,26.25,20C26.5815,20,26.8995,19.8682,27.1339,19.6339C27.3682,19.3995,27.5,19.0815,27.5,18.75C27.5,18.4185,27.3682,18.1005,27.1339,17.8661C26.8995,17.6318,26.5815,17.5,26.25,17.5C26.25,17.5,26.25,17.5,26.25,17.5ZM22.5,17.5C22.5,17.5,7.5,17.5,7.5,17.5C7.5,17.5,7.5,5,7.5,5C7.5,5,22.5,5,22.5,5C22.5,5,22.5,17.5,22.5,17.5C22.5,17.5,22.5,17.5,22.5,17.5Z" fill="#D56819" fill-opacity="1"/></g></g></svg>