<svg xmlns="http://www.w3.org/2000/svg" xmlns:xlink="http://www.w3.org/1999/xlink" fill="none" version="1.1" width="30" height="30" viewBox="0 0 30 30"><defs><clipPath id="master_svg0_608_17174"><rect x="0" y="0" width="30" height="30" rx="0"/></clipPath></defs><g clip-path="url(#master_svg0_608_17174)"><g><path d="M6.875,21.87496240234375C6.875,21.87496240234375,5,21.87496240234375,5,21.87496240234375C5,21.87496240234375,5,8.12495240234375,5,8.12495240234375C5,8.12495240234375,14.75,8.12495240234375,14.75,8.12495240234375C14.75,8.12495240234375,13.75,9.112452402343749,13.75,9.112452402343749C13.5146,9.34617240234375,13.3817,9.663822402343751,13.3805,9.99553240234375C13.3794,10.32724240234375,13.51,10.64582240234375,13.7437,10.88120240234375C13.9775,11.11659240234375,14.2951,11.24947240234375,14.6268,11.25065240234375C14.9585,11.25182240234375,15.2771,11.12117240234375,15.5125,10.88745240234375C15.5125,10.88745240234375,18.6375,7.76245240234375,18.6375,7.76245240234375C18.7546,7.64625240234375,18.8476,7.50800240234375,18.9111,7.35567240234375C18.9746,7.20335240234375,19.0072,7.03996240234375,19.0072,6.87495240234375C19.0072,6.70993240234375,18.9746,6.54656240234375,18.9111,6.39423240234375C18.8476,6.24191240234375,18.7546,6.103662402343749,18.6375,5.9874524023437505C18.6375,5.9874524023437505,15.5125,2.86245340234375,15.5125,2.86245340234375C15.2782,2.62963940234375,14.9615,2.49896240234375,14.6312,2.49896240234375C14.301,2.49896240234375,13.9842,2.62963940234375,13.75,2.86245340234375C13.6328,2.97865740234375,13.5398,3.11690840234375,13.4764,3.26923240234375C13.4129,3.42155640234375,13.3802,3.58494240234375,13.3802,3.74995240234375C13.3802,3.91496240234375,13.4129,4.07835240234375,13.4764,4.23067240234375C13.5398,4.38300240234375,13.6328,4.52125240234375,13.75,4.63745240234375C13.75,4.63745240234375,14.7375,5.62495240234375,14.7375,5.62495240234375C14.7375,5.62495240234375,3.75,5.62495240234375,3.75,5.62495240234375C3.4184799999999997,5.62495240234375,3.100537,5.75665240234375,2.866116,5.99107240234375C2.631696,6.22548240234375,2.500000000000001,6.54343240234375,2.5,6.87495240234375C2.5,6.87495240234375,2.5,23.12496240234375,2.5,23.12496240234375C2.5000000000000004,23.45646240234375,2.631696,23.77446240234375,2.866116,24.00886240234375C3.100537,24.24316240234375,3.4184799999999997,24.37496240234375,3.75,24.37496240234375C3.75,24.37496240234375,6.875,24.37496240234375,6.875,24.37496240234375C7.20652,24.37496240234375,7.52446,24.24316240234375,7.75889,24.00886240234375C7.9933,23.77446240234375,8.125,23.45646240234375,8.125,23.12496240234375C8.125,22.79346240234375,7.9933,22.47546240234375,7.75889,22.24106240234375C7.52446,22.00656240234375,7.20652,21.87496240234375,6.875,21.87496240234375C6.875,21.87496240234375,6.875,21.87496240234375,6.875,21.87496240234375ZM26.25,5.62495240234375C26.25,5.62495240234375,23.125,5.62495240234375,23.125,5.62495240234375C22.7935,5.62495240234375,22.4755,5.75665240234375,22.2411,5.99107240234375C22.0068,6.22548240234375,21.875,6.54343240234375,21.875,6.87495240234375C21.875,7.20647240234375,22.0068,7.52441240234375,22.2411,7.75883240234375C22.4755,7.99326240234375,22.7935,8.12495240234375,23.125,8.12495240234375C23.125,8.12495240234375,25,8.12495240234375,25,8.12495240234375C25,8.12495240234375,25,21.87496240234375,25,21.87496240234375C25,21.87496240234375,14.5375,21.87496240234375,14.5375,21.87496240234375C14.5375,21.87496240234375,15.525,20.88746240234375,15.525,20.88746240234375C15.6421,20.77116240234375,15.7351,20.63296240234375,15.7986,20.48076240234375C15.8621,20.32836240234375,15.8947,20.16496240234375,15.8947,19.99996240234375C15.8947,19.83496240234375,15.8621,19.67156240234375,15.7986,19.51926240234375C15.7351,19.36696240234375,15.6421,19.22866240234375,15.525,19.11246240234375C15.2907,18.87956240234375,14.974,18.74896240234375,14.6438,18.74896240234375C14.3135,18.74896240234375,13.9967,18.87956240234375,13.7625,19.11246240234375C13.7625,19.11246240234375,10.6375,22.23746240234375,10.6375,22.23746240234375C10.52034,22.35366240234375,10.42735,22.49196240234375,10.36389,22.64416240234375C10.300419999999999,22.79656240234375,10.26775,22.95996240234375,10.26775,23.12496240234375C10.26775,23.28996240234375,10.300419999999999,23.45336240234375,10.36389,23.60576240234375C10.42735,23.75796240234375,10.52034,23.89616240234375,10.6375,24.01246240234375C10.6375,24.01246240234375,13.7625,27.13746240234375,13.7625,27.13746240234375C13.9979,27.37116240234375,14.3165,27.50186240234375,14.6482,27.50066240234375C14.9799,27.49946240234375,15.2975,27.36656240234375,15.5312,27.13116240234375C15.765,26.89586240234375,15.8956,26.57716240234375,15.8945,26.24556240234375C15.8932,25.91386240234375,15.7604,25.59616240234375,15.525,25.36246240234375C15.525,25.36246240234375,14.5375,24.37496240234375,14.5375,24.37496240234375C14.5375,24.37496240234375,26.25,24.37496240234375,26.25,24.37496240234375C26.5815,24.37496240234375,26.8995,24.24316240234375,27.1339,24.00886240234375C27.3682,23.77446240234375,27.5,23.45646240234375,27.5,23.12496240234375C27.5,23.12496240234375,27.5,6.87495240234375,27.5,6.87495240234375C27.5,6.54343240234375,27.3682,6.22548240234375,27.1339,5.99107240234375C26.8995,5.75665240234375,26.5815,5.62495240234375,26.25,5.62495240234375C26.25,5.62495240234375,26.25,5.62495240234375,26.25,5.62495240234375Z" fill="#D56819" fill-opacity="1"/></g></g></svg>