<svg xmlns="http://www.w3.org/2000/svg" xmlns:xlink="http://www.w3.org/1999/xlink" fill="none" version="1.1" width="30.000001907348633" height="30.000001907348633" viewBox="0 0 30.000001907348633 30.000001907348633"><defs><clipPath id="master_svg0_1479_10506"><rect x="0" y="0" width="30.000001907348633" height="30.000001907348633" rx="0"/></clipPath></defs><g clip-path="url(#master_svg0_1479_10506)"><g><path d="M6.92991765625,3L23.67049765625,3C24.06999765625,3,24.43899765625,3.213685,24.63819765625,3.5603540000000002L29.51539765625,12.04788C29.76829765625,12.48804,29.69319765625,13.0436,29.33239765625,13.4005L15.90769765625,26.6825C15.47279765625,27.1127,14.77329765625,27.1127,14.33839765625,26.6825L0.93185065625,13.4185C0.56270045625,13.0532,0.49357465624999997,12.4815,0.76503065625,12.03858L5.97839765625,3.533123C6.18143765625,3.201875,6.54173765625,3,6.92991765625,3ZM21.50899765625,6.78939L21.50899765625,9.17088L16.74029765625,9.17088L16.74029765625,10.82202C20.08949765625,10.99848,22.60229765625,11.72316,22.62099765625,12.59178L22.62089765625,14.4026C22.60219765625,15.2713,20.08949765625,15.9959,16.74029765625,16.1724L16.74029765625,20.2245L13.57379765625,20.2245L13.57379765625,16.1724C10.22451765625,15.9959,7.71171765625,15.2713,7.69311765625,14.4026L7.69317765625,12.59178C7.71183765625,11.72316,10.22451765625,10.99848,13.57379765625,10.82202L13.57379765625,9.17088L8.80503765625,9.17088L8.80503765625,6.78939L21.50899765625,6.78939ZM15.15709765625,14.9284C18.73129765625,14.9284,21.71869765625,14.3156,22.44979765625,13.4972C21.82979765625,12.80328,19.58729765625,12.2571,16.74029765625,12.1071L16.74029765625,13.8359C16.22999765625,13.8628,15.70029765625,13.8769,15.15709765625,13.8769C14.61379765625,13.8769,14.08409765625,13.8628,13.57379765625,13.8359L13.57379765625,12.1071C10.72679765625,12.2571,8.48421765625,12.80328,7.86423765625,13.4972C8.595337656249999,14.3156,11.58279765625,14.9284,15.15709765625,14.9284Z" fill-rule="evenodd" fill="#D56819" fill-opacity="1"/></g></g></svg>