<svg xmlns="http://www.w3.org/2000/svg" xmlns:xlink="http://www.w3.org/1999/xlink" fill="none" version="1.1" width="26" height="26" viewBox="0 0 26 26"><defs><clipPath id="master_svg0_64_07229"><rect x="0" y="26" width="26" height="26" rx="0"/></clipPath></defs><g transform="matrix(0,-1,1,0,-26,26)" clip-path="url(#master_svg0_64_07229)"><g><path d="M3.25,36.75L22.75,36.75Q22.8485,36.75,22.9451,36.730785Q23.0417,36.71157,23.1327,36.673879Q23.2237,36.636188,23.3056,36.58147Q23.3875,36.526751,23.4571,36.457107Q23.5267,36.387463,23.5815,36.30557Q23.6362,36.223678,23.6739,36.132683Q23.7116,36.041689,23.7308,35.94509Q23.75,35.8484914,23.75,35.75Q23.75,35.6515086,23.7308,35.55491Q23.7116,35.458311,23.6739,35.367317Q23.6362,35.276322,23.5815,35.19443Q23.5267,35.112537,23.4571,35.042893Q23.3875,34.973249,23.3056,34.91853Q23.2237,34.863812,23.1327,34.826121Q23.0417,34.78843,22.9451,34.769215Q22.8485,34.75,22.75,34.75L3.25,34.75Q3.1515086,34.75,3.05491,34.769215Q2.958311,34.78843,2.867317,34.826121Q2.776322,34.863812,2.69443,34.91853Q2.612537,34.973249,2.542893,35.042893Q2.473249,35.112537,2.41853,35.19443Q2.3638120000000002,35.276322,2.326121,35.367317Q2.28843,35.458311,2.269215,35.55491Q2.25,35.6515086,2.25,35.75Q2.25,35.8484914,2.269215,35.94509Q2.28843,36.041689,2.326121,36.132683Q2.3638120000000002,36.223678,2.41853,36.30557Q2.473249,36.387463,2.542893,36.457107Q2.612537,36.526751,2.69443,36.58147Q2.776322,36.636188,2.867317,36.673879Q2.958311,36.71157,3.05491,36.730785Q3.1515086,36.75,3.25,36.75Z" fill-rule="evenodd" fill="#FFFFFF" fill-opacity="1"/></g><g><path d="M3.25,43.25L22.75,43.25Q22.8485,43.25,22.9451,43.230785Q23.0417,43.21157,23.1327,43.173879Q23.2237,43.136188,23.3056,43.08147Q23.3875,43.026751,23.4571,42.957107Q23.5267,42.887463,23.5815,42.80557Q23.6362,42.723678,23.6739,42.632683Q23.7116,42.541689,23.7308,42.44509Q23.75,42.3484914,23.75,42.25Q23.75,42.1515086,23.7308,42.05491Q23.7116,41.958311,23.6739,41.867317Q23.6362,41.776322,23.5815,41.69443Q23.5267,41.612537,23.4571,41.542893Q23.3875,41.473249,23.3056,41.41853Q23.2237,41.363812,23.1327,41.326121Q23.0417,41.28843,22.9451,41.269215Q22.8485,41.25,22.75,41.25L3.25,41.25Q3.1515086,41.25,3.05491,41.269215Q2.958311,41.28843,2.867317,41.326121Q2.776322,41.363812,2.69443,41.41853Q2.612537,41.473249,2.542893,41.542893Q2.473249,41.612537,2.41853,41.69443Q2.3638120000000002,41.776322,2.326121,41.867317Q2.28843,41.958311,2.269215,42.05491Q2.25,42.1515086,2.25,42.25Q2.25,42.3484914,2.269215,42.44509Q2.28843,42.541689,2.326121,42.632683Q2.3638120000000002,42.723678,2.41853,42.80557Q2.473249,42.887463,2.542893,42.957107Q2.612537,43.026751,2.69443,43.08147Q2.776322,43.136188,2.867317,43.173879Q2.958311,43.21157,3.05491,43.230785Q3.1515086,43.25,3.25,43.25Z" fill-rule="evenodd" fill="#FFFFFF" fill-opacity="1"/></g><g><path d="M15.873882494140625,27.45951590625L15.873763494140626,27.45939690625Q15.733111494140624,27.31874490625,15.549339494140625,27.24262390625Q15.365568494140625,27.16650390625,15.166656494140625,27.16650390625Q14.967744494140625,27.16650390625,14.783973494140625,27.24262390625Q14.600201494140626,27.31874490625,14.459549494140624,27.45939690625Q14.318897494140625,27.60004890625,14.242776494140625,27.78382090625Q14.166656494140625,27.96759190625,14.166656494140625,28.16650390625Q14.166656494140625,28.36541590625,14.242776494140625,28.54918690625Q14.318897494140625,28.73295890625,14.459549494140624,28.87361090625L14.459668494140626,28.87372990625L22.042476494140626,36.45653390625L22.042886494140625,36.456943906250004Q22.183536494140625,36.59759390625,22.367306494140625,36.67371390625Q22.551076494140624,36.749833906250004,22.749986494140625,36.749833906250004Q22.948906494140626,36.749833906250004,23.132676494140625,36.67371390625Q23.316446494140624,36.59759390625,23.457096494140625,36.456943906250004Q23.597746494140623,36.316293906249996,23.673866494140626,36.13252390625Q23.749986494140625,35.94875390625,23.749986494140625,35.749833906250004Q23.749986494140625,35.55092390625,23.673866494140626,35.36715390625Q23.597746494140623,35.18338390625,23.457096494140625,35.04273390625L23.456686494140627,35.04232390625L15.873882494140625,27.45951590625Z" fill-rule="evenodd" fill="#FFFFFF" fill-opacity="1"/></g><g><path d="M3.957226,41.543012L3.957107,41.542893Q3.816455,41.402241,3.632683,41.32612Q3.448912,41.25,3.25,41.25Q3.051088,41.25,2.867317,41.32612Q2.683545,41.402241,2.542893,41.542893Q2.402241,41.683545,2.32612,41.867317Q2.25,42.051088,2.25,42.25Q2.25,42.448912,2.32612,42.632683Q2.402241,42.816455,2.542893,42.957107L2.543012,42.957226L10.125820000000001,50.54003L10.12623,50.540440000000004Q10.26688,50.68109,10.45065,50.75721Q10.63442,50.833330000000004,10.83333,50.833330000000004Q11.032250000000001,50.833330000000004,11.21602,50.75721Q11.39979,50.68109,11.54044,50.540440000000004Q11.68109,50.399789999999996,11.75721,50.21602Q11.83333,50.03225,11.83333,49.833330000000004Q11.83333,49.63442,11.75721,49.45065Q11.68109,49.26688,11.54044,49.12623L11.54003,49.12582L3.957226,41.543012Z" fill-rule="evenodd" fill="#FFFFFF" fill-opacity="1"/></g></g></svg>