<svg xmlns="http://www.w3.org/2000/svg" xmlns:xlink="http://www.w3.org/1999/xlink" fill="none" version="1.1" width="28" height="28" viewBox="0 0 28 28"><defs><radialGradient cx="0" cy="0" r="1" gradientUnits="userSpaceOnUse" id="master_svg0_1519_05730" gradientTransform="translate(14 14) rotate(42.51307644101999) scale(30.20843400128672 13.069011857752049)"><stop offset="0%" stop-color="#F7E1D1" stop-opacity="1"/><stop offset="100%" stop-color="#F7E1D1" stop-opacity="0"/></radialGradient></defs><g><g><ellipse cx="14" cy="14" rx="14" ry="14" fill="#D56819" fill-opacity="1"/><ellipse cx="14" cy="14" rx="13.75" ry="13.75" stroke="url(#master_svg0_1519_05730)" fill-opacity="0" fill="none" stroke-width="0.5"/></g><g><path d="M20.8782,8.295179C20.5813,7.99320221,20.125,7.9141726,19.7439,8.0987505Q15.95819,9.92446,15.04747,10.37161C14.99619,10.39706,14.96376,10.44936,14.96376,10.50661C14.96376,10.56385,14.99619,10.61616,15.04747,10.64161L16.127470000000002,11.17018C16.21588,11.21307,16.31907,11.21307,16.40747,11.17018L19.442500000000003,9.71018L17.9032,12.762319999999999L8.41961,8.132322C8.03161,7.9432319,7.56574,8.0281536,7.269411,8.341991C6.9730824,8.655828,6.915014,9.1258,7.126042,9.502320000000001L13.53533,20.9309C13.708870000000001,21.2416,14.0366,21.4344,14.39247,21.435200000000002L14.41461,21.435200000000002C14.778649999999999,21.4271,15.10842,21.2185,15.27176,20.893L21.0518,9.43018C21.243000000000002,9.05372,21.1732,8.59729,20.8782,8.295179ZM13.75319,18.6323L8.7889,9.77518L13.75319,12.20018L13.75319,18.6323ZM15.0689,18.3845L15.0689,12.84518L17.311,13.94018L15.0689,18.3845Z" fill="#F7E1D1" fill-opacity="1"/></g></g></svg>