<svg xmlns="http://www.w3.org/2000/svg" xmlns:xlink="http://www.w3.org/1999/xlink" fill="none" version="1.1" width="30.000001907348633" height="30.000001907348633" viewBox="0 0 30.000001907348633 30.000001907348633"><defs><clipPath id="master_svg0_1479_10508"><rect x="0" y="0" width="30.000001907348633" height="30.000001907348633" rx="0"/></clipPath></defs><g clip-path="url(#master_svg0_1479_10508)"><g><path d="M17.47763359375,28.047126391601562C9.22298359375,28.043926391601563,3.02415359375,20.50632639160156,4.61495359375,12.406426391601563C6.20575359375,4.306456391601563,14.79493359375,-0.32687260839843746,22.43763359375,2.7921363916015625C20.13923359375,1.3373853916015626,17.47413359375,0.5671181516015625,14.75403359375,0.5714263916015625C6.80264359375,0.5714263916015625,0.35693359375,7.0171363916015626,0.35693359375,14.968526391601563C0.35693359375,22.920026391601564,6.80264359375,29.365726391601562,14.75403359375,29.365726391601562C17.59883359375,29.369926391601563,20.38043359375,28.527526391601562,22.74483359375,26.945726391601564C21.08443359375,27.67412639160156,19.29073359375,28.04922639160156,17.47763359375,28.047126391601562Z" fill="#D56819" fill-opacity="1"/></g><g><path d="M18.05,3.4164363316146873C15.71019,3.4135674023046874,13.42518,4.124488612304687,11.5,5.454297612304687C18.42675,2.2913076123046876,26.303800000000003,7.353837612304687,26.303800000000003,14.968627612304687C26.303800000000003,22.583327612304686,18.42675,27.645827612304686,11.5,24.48282761230469C17.913719999999998,28.899727612304687,26.7713,25.834727612304686,29.0834,18.398427612304687C31.3965,10.963537612304687,25.8385,3.4164366040946876,18.05,3.4164363316146873Z" fill="#D56819" fill-opacity="1"/></g><g style="opacity:0.800000011920929;"><path d="M6,12L7.11088,12L9.02197,16.97479L9.05021,16.97479L10.95188,12L12.06276,12L9.65272,18L8.41004,18L6,12ZM12.25105,12L17.7584,12L17.7584,12.781513L15.51778,12.781513L15.51778,18L14.50105,18L14.50105,12.781513L12.25105,12.781513L12.25105,12ZM18.567999999999998,12L21.637,12Q22.6255,12,23.181,12.420168Q23.7176,12.823529,23.7176,13.51261Q23.7176,14.01681,23.4351,14.36975Q23.1433,14.70588,22.6538,14.865549999999999Q23.3222,14.98319,23.6611,15.34454Q24,15.70588,24,16.31933Q24,17.21849,23.3033,17.64706Q22.7103,18,21.637,18L18.567999999999998,18L18.567999999999998,12ZM19.594099999999997,12.756302999999999L19.594099999999997,14.54622L21.364,14.54622Q22.0607,14.54622,22.3808,14.327729999999999Q22.6914,14.10084,22.6914,13.62185Q22.6914,13.16807,22.3808,12.966386Q22.0795,12.756302999999999,21.3828,12.756302999999999L19.594099999999997,12.756302999999999ZM19.594099999999997,15.29412L19.594099999999997,17.2437L21.4958,17.2437Q22.1266,17.2437,22.5126,17.05882Q22.9739,16.81513,22.9739,16.30252Q22.9739,15.773109999999999,22.6161,15.52941Q22.2678,15.29412,21.5241,15.29412L19.594099999999997,15.29412Z" fill="#D56819" fill-opacity="1"/></g></g></svg>