<svg xmlns="http://www.w3.org/2000/svg" xmlns:xlink="http://www.w3.org/1999/xlink" fill="none" version="1.1" width="14" height="14" viewBox="0 0 14 14"><g><g style="opacity:0.30000001192092896;"><ellipse cx="7" cy="7" rx="6.5" ry="6.5" fill-opacity="0" stroke-opacity="0.30000001192092896" stroke="#999999" fill="none" stroke-width="1"/></g><g><g><path d="M9.358979999999999,5.4298020000000005Q9.45453,5.350003,9.507259999999999,5.237243Q9.559999999999999,5.124483,9.559999999999999,5Q9.559999999999999,4.9448448,9.549240000000001,4.890749Q9.53848,4.836654,9.51737,4.785697Q9.49626,4.734741,9.465620000000001,4.688881Q9.43498,4.643021,9.39598,4.60402Q9.35698,4.56502,9.311119999999999,4.534377Q9.26526,4.503734,9.2143,4.482628Q9.163350000000001,4.46152,9.10925,4.45076Q9.055150000000001,4.4399999999999995,9,4.4399999999999995Q8.87552,4.4399999999999995,8.76276,4.492737Q8.65,4.5454740000000005,8.5702,4.641015L4.641015,8.5702Q4.5454740000000005,8.65,4.492737,8.76276Q4.4399999999999995,8.87552,4.4399999999999995,9Q4.4399999999999995,9.055150000000001,4.45076,9.10925Q4.46152,9.163350000000001,4.482628,9.2143Q4.503734,9.26526,4.534377,9.311119999999999Q4.56502,9.35698,4.60402,9.39598Q4.643021,9.43498,4.688881,9.465620000000001Q4.734741,9.49626,4.785697,9.51737Q4.836654,9.53848,4.890749,9.549240000000001Q4.9448448,9.559999999999999,5,9.559999999999999Q5.124483,9.559999999999999,5.237243,9.507259999999999Q5.350003,9.45453,5.4298020000000005,9.358979999999999L9.358979999999999,5.4298020000000005Z" fill-rule="evenodd" fill="#999999" fill-opacity="1"/></g><g transform="matrix(0,1,-1,0,14,-4)"><path d="M13.358979999999999,5.4298020000000005Q13.45453,5.350003,13.507259999999999,5.237243Q13.559999999999999,5.124483,13.559999999999999,5Q13.559999999999999,4.9448448,13.549240000000001,4.890749Q13.53848,4.836654,13.51737,4.785697Q13.49626,4.734741,13.465620000000001,4.688881Q13.43498,4.643021,13.39598,4.60402Q13.35698,4.56502,13.311119999999999,4.534377Q13.26526,4.503734,13.2143,4.482628Q13.163350000000001,4.46152,13.10925,4.45076Q13.055150000000001,4.4399999999999995,13,4.4399999999999995Q12.87552,4.4399999999999995,12.76276,4.492737Q12.65,4.5454740000000005,12.5702,4.641015L8.641015,8.5702Q8.545474,8.65,8.492737,8.76276Q8.44,8.87552,8.44,9Q8.44,9.055150000000001,8.45076,9.10925Q8.46152,9.163350000000001,8.482628,9.2143Q8.503734,9.26526,8.534377,9.311119999999999Q8.56502,9.35698,8.60402,9.39598Q8.643021,9.43498,8.688881,9.465620000000001Q8.734741,9.49626,8.785697,9.51737Q8.836654,9.53848,8.890749,9.549240000000001Q8.9448448,9.559999999999999,9,9.559999999999999Q9.124483,9.559999999999999,9.237243,9.507259999999999Q9.350003,9.45453,9.429802,9.358979999999999L13.358979999999999,5.4298020000000005Z" fill-rule="evenodd" fill="#999999" fill-opacity="1"/></g></g></g></svg>