<svg xmlns="http://www.w3.org/2000/svg" xmlns:xlink="http://www.w3.org/1999/xlink" fill="none" version="1.1" width="14" height="14" viewBox="0 0 14 14"><g><g><ellipse cx="7" cy="7" rx="7" ry="7" fill="#D56819" fill-opacity="1"/></g><g><path d="M6.35355,10.35355L11.35355,5.353553Q11.42388,5.283227,11.46194,5.191342Q11.5,5.0994562,11.5,5Q11.5,4.9005439,11.46194,4.808658Q11.42388,4.716773,11.35355,4.646447Q11.28323,4.576121,11.19134,4.53806Q11.09946,4.5,11,4.5Q10.98706,4.5,10.974129999999999,4.50067Q10.881509999999999,4.505469,10.79677,4.543167Q10.71203,4.580865,10.64645,4.646447L10.64626,4.646634L6,9.29289L3.353553,6.64645Q3.283227,6.5761199999999995,3.191342,6.53806Q3.0994562,6.5,3,6.5Q2.9005438,6.5,2.808658,6.53806Q2.716773,6.5761199999999995,2.646447,6.64645Q2.57612,6.71677,2.5380599999999998,6.80866Q2.5,6.9005399999999995,2.5,7Q2.5,7.0994600000000005,2.5380599999999998,7.19134Q2.57612,7.28323,2.646447,7.35355L2.646634,7.35374L5.64645,10.35355Q5.68127,10.38837,5.7222100000000005,10.41573Q5.76316,10.44309,5.80866,10.46194Q5.854150000000001,10.48078,5.90245,10.49039Q5.95075,10.5,6,10.5Q6.04925,10.5,6.09754,10.49039Q6.14584,10.48078,6.19134,10.46194Q6.23684,10.44309,6.27778,10.41573Q6.31873,10.38837,6.35355,10.35355Z" fill-rule="evenodd" fill="#FFFFFF" fill-opacity="1"/></g></g></svg>